<svg id="Camada_1" data-name="Camada 1" xmlns="http://www.w3.org/2000/svg" viewBox="0 0 3995.17 3824.73"><defs><style>.cls-1{fill:#1c1c1b;}.cls-2,.cls-3{font-size:200px;font-family:Calibri-Bold, Calibri;font-weight:700;}.cls-3{letter-spacing:0.1em;}</style></defs><path class="cls-1" d="M5357,3104.42c0-203.7-245.67-366.07-305.35-549.87-61.85-190.49,39.32-465.84-76.07-624.4C4859,1770,4565.11,1781.7,4405,1665.15c-158.55-115.39-237.61-399.18-428.1-461-183.81-59.68-413.75,121.49-617.44,121.49S2925.78,1144.43,2742,1204.11c-190.49,61.85-269.55,345.64-428.11,461-160.14,116.55-454.06,104.85-570.61,265-115.39,158.56-14.23,433.92-76.08,624.41-59.68,183.8-305.36,346.18-305.36,549.88s245.68,366.07,305.36,549.87c61.85,190.48-39.32,465.84,76.07,624.39,116.54,160.15,410.47,148.45,570.61,265,158.55,115.4,237.62,399.19,428.11,461,183.8,59.68,413.74-121.49,617.44-121.49s433.63,181.17,617.43,121.49c190.48-61.85,269.55-345.64,428.1-461,160.15-116.55,454.07-104.85,570.61-265,115.4-158.56,14.23-433.92,76.09-624.4C5111.33,3470.49,5357,3308.11,5357,3104.42ZM3359.42,4693c-877.32,0-1588.53-711.21-1588.53-1588.53S2482.1,1515.89,3359.42,1515.89,4947.94,2227.1,4947.94,3104.42,4236.74,4693,3359.42,4693Z" transform="translate(-1361.83 -1192.05)"/><path class="cls-1" d="M3359.42,1568.08c-847.13,0-1536.34,689.2-1536.34,1536.34s689.21,1536.35,1536.34,1536.35,1536.35-689.21,1536.35-1536.35S4206.56,1568.08,3359.42,1568.08Zm0,3046.85c-832.89,0-1510.5-677.61-1510.5-1510.51s677.61-1510.51,1510.5-1510.51,1510.51,677.62,1510.51,1510.51S4192.32,4614.93,3359.42,4614.93Z" transform="translate(-1361.83 -1192.05)"/><path class="cls-1" d="M1948.83,3267.5l-7.64,23.06,45-14.08,37.87,29.24-.28-46.8,19.53-12.5c9.59-6.15,19.93-12.2,19.93-12.2L2020,3217.69l-9.13-46-31.24,36.1-46.94-5,24.2,41.86a48.26,48.26,0,0,0-2.78,7.1Z" transform="translate(-1361.83 -1192.05)"/><path class="cls-1" d="M2027.16,3479.28l40.19,23.71-5-46.88,36-30.51L2052,3416l-9.1-21.7c-2.28-5.45-4.56-10.9-6.28-15a37.8,37.8,0,0,1-2.4-6.92l-4.2,6.23-8.2,13.63L2010,3412.4l-47.57,2.18,32.29,37.32-10.33,48.15Z" transform="translate(-1361.83 -1192.05)"/><polygon class="cls-1" points="766.68 2453.68 796.87 2418.48 750.66 2415.51 728.35 2374.33 709.19 2418.05 662.87 2427.19 698.39 2460.04 697.09 2508.42 735.94 2481.62 780.67 2498.37 766.68 2453.68"/><path class="cls-1" d="M2239.05,3859.42c-1.73-4.08-4-9.52-6.34-15l-9.18-21.68,25.43-39.87-46.95,4.45L2172,3751l-11.08,45.33-44.74,16.16,41.66,26.21,4.16,49.18,34.77-32.54s45.09,11.24,45.77,10.49Z" transform="translate(-1361.83 -1192.05)"/><path class="cls-1" d="M2361.81,3941.43l-23.12,6.11-22.65,5.3-33.16-33-5.64,47.61-41.5,22.36,21.78,10.69a183,183,0,0,0,22.44,9.69l12.76,46.83,29.3-37.11,47.43,3.08-26.19-38.92Z" transform="translate(-1361.83 -1192.05)"/><path class="cls-1" d="M2485.64,4125.9l12.75-45.75L2455,4098l-39.06-26.29,2.48,46.87-38,28.52,47.21,13.16,18.09,46.12,23.76-41.37s11.39-.14,23.55-1.55l24-2.69-16.41-16.66Z" transform="translate(-1361.83 -1192.05)"/><path class="cls-1" d="M2653.15,4198l-40.77,24.87s-2.78-1-6.71-3l-14.1-7.63L2571,4201.14l8.35,47.47-33.06,33.48,7.47,1.28a150.2,150.2,0,0,0,16.66,2.26l24.67,2.14,25.72,41.42L2638,4285l46.05-10.67-36.19-29.95Z" transform="translate(-1361.83 -1192.05)"/><path class="cls-1" d="M2824,4291.09l-36.14,29.67-44.85-14.05,16,44.37-27.85,38.35,48.82-.94s30.39,39.39,31.06,38.32l10.23-45.88,44.49-18.86s-41.16-22.1-40.58-23.31Z" transform="translate(-1361.83 -1192.05)"/><path class="cls-1" d="M3006.8,4357.46l-31.55,35.71-7.32-.79A111.23,111.23,0,0,1,2952,4390l-22.89-4.77,10.76,21.52,7.62,14.87c2.1,4.08,3.64,6.44,3.64,6.44l-21.76,42a55.49,55.49,0,0,0,7.56-1.13l16.8-3.47,24.18-5.12,36.78,32.2,3.31-47.3,40.76-23.62-43.36-18.18Z" transform="translate(-1361.83 -1192.05)"/><path class="cls-1" d="M3212.74,4441.23,3197.49,4396l-25.71,39-47-.29,28.43,37.75L3138,4517.28l46.33-15.23,20.28,14.21a172.65,172.65,0,0,0,20.74,13l-3.82-46.85,36.91-31.19S3212.53,4442.65,3212.74,4441.23Z" transform="translate(-1361.83 -1192.05)"/><path class="cls-1" d="M3413.61,4446.81l-21.74-41.37-19.66,43.48a136.82,136.82,0,0,1-23.17,3.53l-23.28,2.21,33.66,34.75-8.41,46.23c.19,1.3,43.49-23.34,43.49-23.34l44.57,19.81-10.7-46.16,32-34.69Z" transform="translate(-1361.83 -1192.05)"/><path class="cls-1" d="M3647.22,4442l12.86-20.35-23.25,2.48c-5.74.87-11.7.59-16.12.68l-7.36,0-27.81-38.69-13.16,44.92-45,13.75,38.2,27.58-1.43,47.4,39.81-28.36,23.53,7.52,16.37,5.12a50.23,50.23,0,0,0,7.43,2l-17.45-44.1,4.28-5.94Z" transform="translate(-1361.83 -1192.05)"/><path class="cls-1" d="M3853,4362.07l-46,9.59-33-33.1-5.94,47.36c.48,1.33-42.77,18.95-42.77,18.95l42.37,23.19,5.57,46.68a175.8,175.8,0,0,0,17.74-16.92l17.06-17.94,48.46,5.74-23.87-40.94Z" transform="translate(-1361.83 -1192.05)"/><path class="cls-1" d="M4034.83,4274.37s-42.89,18.53-43.48,17.3l-38.06-28.76.72,46.73L3915.07,4336l44.7,15.12,12.68,45.66,29.68-38.75s49.68.6,49.27-.54l-29.55-36.58Z" transform="translate(-1361.83 -1192.05)"/><path class="cls-1" d="M4201.83,4160.78l-41.36,22.42-41.4-22,8.21,46.85s-8.11,8.62-16.84,16.44l-18,14.9s47.42,10.19,47.07,9.24l19.49,43.46,22.55-44.15,48.19-8.54-34.93-32.11Z" transform="translate(-1361.83 -1192.05)"/><path class="cls-1" d="M4349.39,4023l-36.14,29.67s-11-3.59-22.34-7.83l-22.37-8.34,14.29,44.31L4253,4117.06l47.41,1.53,25.5,39.86,17.23-45.46s12.13-3.09,23.58-7.13l22.67-8.53L4350.37,4071Z" transform="translate(-1361.83 -1192.05)"/><path class="cls-1" d="M4476.33,3865.86,4443,3899.12l-46.22-9,21.4,42.24s-22.35,41.56-23.4,40.78c0,0,12.36-.6,23.74-2.31l23.12-3.35,31.39,35.84,8.91-48.6,43.94-22-42.89-20.5Z" transform="translate(-1361.83 -1192.05)"/><path class="cls-1" d="M4576.33,3690.42l-26.22,38.8-23.2-.68-23.26-1.1,26.48,38-18.26,43.15,46.09-12.27,36,30.57,3.52-48.28a64.72,64.72,0,0,0,6.21-4.36l13.21-9.95,19.34-14.74-45.15-13.72Z" transform="translate(-1361.83 -1192.05)"/><path class="cls-1" d="M4671.55,3545.25l-9.8-21.27c-2.47-5.24-4.95-10.47-6.81-14.4s-3.45-6.59-3.45-6.59a40.07,40.07,0,0,1-3.18,6.62l-7.73,14.29-11.2,20.7-47,4.93,32.75,34-9.63,46.16,42.31-19.57,40.51,25-5.5-49,35.83-33.92Z" transform="translate(-1361.83 -1192.05)"/><path class="cls-1" d="M4722.21,3344.74l-27.46-39-13.71,44.8-44.71,12.13,18.7,14.15,18.18,14.37-5,46.55,40.61-25.32,43.39,18.5s-2.64-11.85-5.29-23.71c-1.34-5.85-2.69-11.71-3.69-16.11a64.36,64.36,0,0,0-2.15-7.36l28.31-39.26Z" transform="translate(-1361.83 -1192.05)"/><polygon class="cls-1" points="3380.85 1946.84 3349.55 1912.37 3340.38 1958.65 3296.95 1977.26 3338.28 2000.06 3342.74 2047.01 3377.37 2015.79 3423.45 2027.65 3403.71 1982.53 3427.89 1939.58 3380.85 1946.84"/><path class="cls-1" d="M4770,2941.34l7.64-23.06-45,14.07-37.87-29.24.28,46.81-19.53,12.49c-9.59,6.16-19.92,12.21-19.92,12.21l43.26,16.52,9.12,46,31.24-36.1,46.95,5L4762,2964.1a48.23,48.23,0,0,0,2.77-7.1C4766.16,2952.72,4768.08,2947,4770,2941.34Z" transform="translate(-1361.83 -1192.05)"/><path class="cls-1" d="M4691.67,2729.55l-40.18-23.71,5,46.89-36,30.51,46.3,9.62,9.09,21.71c2.29,5.45,4.57,10.9,6.28,15a37.8,37.8,0,0,1,2.4,6.92l4.2-6.23,8.2-13.64,11.86-20.18,47.57-2.17-32.3-37.33,10.33-48.15Z" transform="translate(-1361.83 -1192.05)"/><polygon class="cls-1" points="3228.49 1371.06 3198.3 1406.26 3244.5 1409.22 3266.82 1450.41 3285.98 1406.69 3332.3 1397.55 3296.78 1364.7 3298.08 1316.32 3259.22 1343.12 3214.5 1326.36 3228.49 1371.06"/><path class="cls-1" d="M4479.78,2349.41l6.35,15,9.18,21.68-25.44,39.87,46.95-4.45,30.05,36.33,11.09-45.33,44.74-16.15L4561,2370.1l-4.15-49.17-34.78,32.53s-45.08-11.23-45.77-10.49Z" transform="translate(-1361.83 -1192.05)"/><path class="cls-1" d="M4396.81,2188.93l-47.42-3.07,26.18,38.92L4357,2267.4l23.11-6.11,22.66-5.3,33.15,33,5.64-47.6,41.5-22.37-21.77-10.68a182.88,182.88,0,0,0-22.44-9.7l-12.77-46.83Z" transform="translate(-1361.83 -1192.05)"/><path class="cls-1" d="M4233.2,2082.94l-12.76,45.74,43.43-17.86,39.05,26.29-2.47-46.87,38-28.52-47.21-13.15-18.1-46.13-23.75,41.37s-11.4.14-23.56,1.55l-24,2.7,16.4,16.66Z" transform="translate(-1361.83 -1192.05)"/><path class="cls-1" d="M4065.68,2010.8l40.77-24.88s2.78,1,6.71,3l14.1,7.64,20.58,11.16-8.34-47.47,33.05-33.48-7.47-1.28a149.53,149.53,0,0,0-16.66-2.26l-24.67-2.15L4098,1879.65l-17.16,44.15-46,10.67,36.19,30Z" transform="translate(-1361.83 -1192.05)"/><path class="cls-1" d="M3894.79,1917.75l36.14-29.67,44.85,14.05-16-44.38,27.86-38.34-48.82.93s-30.4-39.39-31.06-38.32l-10.23,45.88-44.5,18.86s41.17,22.11,40.58,23.31Z" transform="translate(-1361.83 -1192.05)"/><path class="cls-1" d="M3712,1851.37l31.54-35.7,7.32.78a111.15,111.15,0,0,1,15.95,2.38l22.89,4.77L3779,1802.08c-2.78-5.4-5.55-10.81-7.63-14.87s-3.63-6.43-3.63-6.43l21.75-42a56.52,56.52,0,0,0-7.55,1.14l-16.81,3.46-24.17,5.13-36.78-32.21-3.32,47.3-40.76,23.62,43.36,18.18Z" transform="translate(-1361.83 -1192.05)"/><path class="cls-1" d="M3506.09,1767.6l15.26,45.25,25.71-39,47,.28-28.43-37.75,15.23-44.85-46.33,15.22-20.28-14.2a172,172,0,0,0-20.74-13l3.82,46.86-36.91,31.18S3506.3,1766.18,3506.09,1767.6Z" transform="translate(-1361.83 -1192.05)"/><path class="cls-1" d="M3305.22,1762l21.75,41.37,19.65-43.47a135.88,135.88,0,0,1,23.17-3.53l23.29-2.22-33.66-34.75,8.41-46.23c-.19-1.3-43.49,23.35-43.49,23.35l-44.58-19.81,10.71,46.15-32,34.69Z" transform="translate(-1361.83 -1192.05)"/><path class="cls-1" d="M3071.61,1766.83l-12.86,20.35,23.25-2.48c5.75-.87,11.71-.59,16.12-.67l7.36,0,27.82,38.68,13.16-44.92,45-13.75-38.2-27.58,1.43-47.39-39.81,28.36-23.53-7.52-16.37-5.13a50.44,50.44,0,0,0-7.43-2l17.46,44.1s-1.71,2.38-4.29,5.94Z" transform="translate(-1361.83 -1192.05)"/><path class="cls-1" d="M2865.81,1846.76l46-9.58,33,33.1,5.95-47.36c-.48-1.33,42.76-19,42.76-19l-42.36-23.19-5.58-46.69a176.32,176.32,0,0,0-17.73,16.92L2910.75,1769l-48.46-5.73,23.87,40.93Z" transform="translate(-1361.83 -1192.05)"/><path class="cls-1" d="M2684,1934.47s42.89-18.53,43.47-17.31l38.06,28.76-.71-46.73,38.94-26.31-44.71-15.13-12.67-45.66-29.68,38.75s-49.68-.6-49.28.54L2697,1888Z" transform="translate(-1361.83 -1192.05)"/><path class="cls-1" d="M2517,2048.06l41.36-22.43,41.39,22-8.2-46.85s8.11-8.62,16.83-16.43l18-14.91s-47.42-10.18-47.06-9.23l-19.49-43.46-22.55,44.14-48.2,8.54,34.94,32.11Z" transform="translate(-1361.83 -1192.05)"/><path class="cls-1" d="M2369.45,2185.86l36.14-29.68s11,3.59,22.33,7.84l22.38,8.33-14.29-44.3,29.79-36.27-47.41-1.54-25.51-39.85-17.23,45.45s-12.13,3.09-23.58,7.13l-22.67,8.53,39.06,26.35Z" transform="translate(-1361.83 -1192.05)"/><path class="cls-1" d="M2242.5,2343l33.39-33.26,46.22,9.05-21.4-42.24s22.34-41.57,23.4-40.79c0,0-12.37.6-23.74,2.31l-23.13,3.36-31.39-35.84-8.9,48.6-43.94,22,42.88,20.51Z" transform="translate(-1361.83 -1192.05)"/><path class="cls-1" d="M2142.51,2518.41l26.22-38.79,23.19.68,23.26,1.09-26.48-38,18.27-43.15-46.09,12.26-36-30.56-3.52,48.28a66.34,66.34,0,0,0-6.2,4.35l-13.21,10-19.35,14.73,45.15,13.73Z" transform="translate(-1361.83 -1192.05)"/><path class="cls-1" d="M2047.29,2663.58s4.89,10.64,9.79,21.28c2.48,5.23,5,10.47,6.81,14.4s3.46,6.58,3.46,6.58a39.58,39.58,0,0,1,3.17-6.61l7.73-14.3c5.61-10.34,11.21-20.69,11.21-20.69l47-4.94-32.76-34,9.63-46.17L2071,2598.74l-40.51-25,5.5,49-35.82,33.92Z" transform="translate(-1361.83 -1192.05)"/><path class="cls-1" d="M1996.63,2864.09l27.45,39,13.71-44.8,44.71-12.12L2063.8,2832l-18.18-14.38,5-46.54-40.6,25.31-43.4-18.5,5.3,23.71c1.34,5.86,2.68,11.72,3.69,16.11a65.8,65.8,0,0,0,2.14,7.36l-28.3,39.26Z" transform="translate(-1361.83 -1192.05)"/><polygon class="cls-1" points="614.32 1877.89 645.62 1912.37 654.79 1866.08 698.22 1847.47 656.88 1824.68 652.42 1777.72 617.79 1808.94 571.72 1797.09 591.46 1842.21 567.28 1885.15 614.32 1877.89"/><polygon class="cls-1" points="1886.37 1089.99 1963.93 1049.22 2041.49 1089.99 2026.68 1003.63 2089.42 942.47 2002.71 929.88 1963.93 851.3 1925.15 929.88 1838.44 942.47 1901.19 1003.63 1886.37 1089.99"/><polygon class="cls-1" points="2198.22 1135.94 2257.88 1104.58 2317.54 1135.94 2306.15 1069.51 2354.41 1022.46 2287.71 1012.77 2257.88 952.33 2228.05 1012.77 2161.35 1022.46 2209.62 1069.51 2198.22 1135.94"/><polygon class="cls-1" points="1610.32 1135.94 1669.98 1104.58 1729.64 1135.94 1718.24 1069.51 1766.51 1022.46 1699.81 1012.77 1669.98 952.33 1640.15 1012.77 1573.45 1022.46 1621.71 1069.51 1610.32 1135.94"/><path class="cls-1" d="M3977.62,3518.62c-88.55-1-191.86-3.34-302.54-3.74l-346.82-1.62-346.82,1.63c-110.68.47-214,2.74-302.54,3.75s-162.34,3.52-214,4.51l-81.17,2.37,81.17,2.38c51.66,1,125.45,3.39,214,4.51s191.86,3.28,302.54,3.75l346.82,1.63,346.82-1.61c110.68-.41,214-2.74,302.54-3.75s162.34-3.53,214-4.51l81.17-2.4-81.17-2.38C4140,3522.15,4066.17,3519.71,3977.62,3518.62Z" transform="translate(-1361.83 -1192.05)"/><path class="cls-1" d="M3952.88,2676.2c-84.75-1-183.62-3.19-289.56-3.58l-332-1.53-331.94,1.55c-105.94.45-204.81,2.61-289.57,3.58s-155.37,3.36-204.81,4.3l-77.69,2.27,77.69,2.27c49.44,1,120.06,3.24,204.81,4.31s183.63,3.13,289.57,3.58l331.94,1.55,332-1.54c105.94-.39,204.81-2.61,289.56-3.57s155.38-3.37,204.82-4.32l77.69-2.28-77.69-2.28C4108.26,2679.57,4037.63,2677.24,3952.88,2676.2Z" transform="translate(-1361.83 -1192.05)"/><text class="cls-2" transform="translate(1421.5 2801.3) rotate(25.55)">G</text><text class="cls-2" transform="translate(1585.38 2875.08) rotate(17.08)">A</text><text class="cls-2" transform="translate(1751.67 2922.04) rotate(9.06)">R</text><text class="cls-2" transform="translate(1914.18 2944.65) rotate(1.15)">A</text><text class="cls-2" transform="translate(2087.75 2944.66) rotate(-7.37)">N</text><text class="cls-2" transform="translate(2268.83 2916.44) rotate(-15.39)">T</text><text class="cls-2" transform="translate(2410.12 2873.68) rotate(-21.37)">I</text><text class="cls-2" transform="matrix(0.88, -0.47, 0.47, 0.88, 2505.54, 2835.4)">A</text><text class="cls-3" transform="translate(1840.68 2637.02)">DE</text></svg>