<svg id="Camada_1" data-name="Camada 1" xmlns="http://www.w3.org/2000/svg" viewBox="0 0 3995.17 3995.18"><defs><style>.cls-1,.cls-3{fill:#1c1c1b;}.cls-2{font-size:200px;font-family:Algerian;}.cls-3{font-size:366px;font-family:Calibri;}.cls-4{letter-spacing:-0.05em;}.cls-5{letter-spacing:-0.01em;}.cls-6{letter-spacing:0em;}.cls-7{letter-spacing:-0.01em;}.cls-8{letter-spacing:0em;}.cls-9{font-size:505px;font-family:Calibri-Bold, Calibri;font-weight:700;}.cls-10{letter-spacing:-0.01em;}.cls-11{letter-spacing:0em;}</style></defs><polygon class="cls-1" points="1886.37 1175.22 1963.93 1134.44 2041.49 1175.22 2026.68 1088.86 2089.42 1027.7 2002.71 1015.1 1963.93 936.52 1925.15 1015.1 1838.44 1027.7 1901.19 1088.86 1886.37 1175.22"/><polygon class="cls-1" points="2198.22 1221.16 2257.88 1189.8 2317.54 1221.16 2306.15 1154.73 2354.41 1107.69 2287.71 1097.99 2257.88 1037.55 2228.05 1097.99 2161.35 1107.69 2209.62 1154.73 2198.22 1221.16"/><polygon class="cls-1" points="1610.32 1221.16 1669.98 1189.8 1729.64 1221.16 1718.24 1154.73 1766.51 1107.69 1699.81 1097.99 1669.98 1037.55 1640.15 1097.99 1573.45 1107.69 1621.71 1154.73 1610.32 1221.16"/><text class="cls-2" transform="translate(1289.58 2803.29) rotate(32.8)">G</text><text class="cls-2" transform="translate(1451.77 2903.25) rotate(23.32)">A</text><text class="cls-2" transform="translate(1642.13 2979.5) rotate(14.07)">R</text><text class="cls-2" transform="translate(1818.68 3020.74) rotate(4.58)">A</text><text class="cls-2" transform="translate(2022.4 3032.61) rotate(-3.97)">N</text><text class="cls-2" transform="translate(2193.87 3016.85) rotate(-12.12)">T</text><text class="cls-2" transform="translate(2354.66 2977.76) rotate(-18.75)">I</text><text class="cls-2" transform="translate(2459.55 2940.9) rotate(-25.48)">D</text><text class="cls-2" transform="matrix(0.82, -0.57, 0.57, 0.82, 2615.53, 2863.21)">A</text><path class="cls-1" d="M5114.36,3277.43l242.64-173-242.64-173L5319,2714.74l-271.74-122.37,158.13-252.62-290.48-66.63,105.57-278.68-297.89-8.63L4772,1691.92l-293.9,49.35-8.63-297.9-278.68,105.56-66.63-290.49-252.62,158.13-122.4-271.75-216.66,204.64-173-242.63-173,242.63-216.67-204.64-122.38,271.74-252.61-158.15-66.62,290.49-278.68-105.57-8.65,297.9-293.88-49.36,49.35,293.89-297.89,8.63,105.55,278.7-290.5,66.62,158.16,252.61-271.78,122.4,204.64,216.67-242.62,173,242.62,173-204.64,216.67,271.76,122.38-158.16,252.61,290.5,66.63-105.59,278.69,297.91,8.62-49.35,293.89,293.88-49.36,8.62,297.89,278.71-105.54,66.62,290.5,252.63-158.14L2969.74,5064l216.67-204.62,173,242.63,173-242.63L3749.07,5064l122.4-271.75,252.59,158.16,66.64-290.5,278.68,105.59,8.63-297.91,293.89,49.35-49.34-293.88,297.89-8.63-105.56-278.71,290.5-66.61L5047.25,3616.5,5319,3494.1ZM3359.42,4644.54c-850.6,0-1540.13-689.54-1540.13-1540.12s689.53-1540.13,1540.13-1540.13,1540.13,689.54,1540.13,1540.13S4210,4644.54,3359.42,4644.54Z" transform="translate(-1361.83 -1106.83)"/><path class="cls-1" d="M3359.42,1898.14c-665.16,0-1206.29,541.13-1206.29,1206.28s541.13,1206.29,1206.29,1206.29S4565.7,3769.58,4565.7,3104.42,4024.57,1898.14,3359.42,1898.14Zm0,2387.11c-651.11,0-1180.83-529.72-1180.83-1180.83S2708.31,1923.6,3359.42,1923.6s1180.82,529.71,1180.82,1180.82S4010.53,4285.25,3359.42,4285.25Z" transform="translate(-1361.83 -1106.83)"/><path class="cls-1" d="M2022.72,3197.54c21.61,13.15,41.22,13.28,41.22,13.28,2.13-40.61-19.21-66.05-42.78-82.72a175.32,175.32,0,0,0-48.1-23.36C1978.24,3157.51,2000.59,3184.48,2022.72,3197.54Z" transform="translate(-1361.83 -1106.83)"/><path class="cls-1" d="M1972.54,3104.74a140.31,140.31,0,0,0-46.88,25c-22.44,18.3-44.08,49.53-34,95,0,0,19.3-3.83,38.61-20.87C1949,3186.78,1969.69,3157.19,1972.54,3104.74Z" transform="translate(-1361.83 -1106.83)"/><path class="cls-1" d="M2034.27,3306.3c22.62,11.34,42.35,9.85,42.35,9.85-1-20.33-6-36.44-15.5-49.21-9.12-12.8-21.92-22.4-34-29.71a169.55,169.55,0,0,0-49.12-19.48c3.56,26.13,12.73,45.47,23.1,59.63A94.74,94.74,0,0,0,2034.27,3306.3Z" transform="translate(-1361.83 -1106.83)"/><path class="cls-1" d="M1967.18,3281.65c6.36-16.68,9.9-37.43,10.34-63.86a145,145,0,0,0-45.44,28.78,97.53,97.53,0,0,0-25.66,39.49c-5.2,16.22-7.69,35.89-.42,58,0,0,18.75-5.36,36.6-23.91A111.05,111.05,0,0,0,1967.18,3281.65Z" transform="translate(-1361.83 -1106.83)"/><path class="cls-1" d="M2055.33,3413.6c23.27,9.5,42.61,6.44,42.61,6.44-1.67-20.43-9.24-35.75-19.75-47.7-10.17-12-22.74-20.71-35.64-27a173.39,173.39,0,0,0-51-15.33c6.77,25.55,16.09,44.35,27.75,57.57A97.28,97.28,0,0,0,2055.33,3413.6Z" transform="translate(-1361.83 -1106.83)"/><path class="cls-1" d="M1965.09,3434.88a107.93,107.93,0,0,0,20.74-40.23,167.91,167.91,0,0,0,5.22-64.52,141.88,141.88,0,0,0-42.48,32.3c-9.64,10.94-18.76,24.9-23,41.6-3.91,16.61-3.44,36.11,4.6,57.78C1930.18,3461.81,1948.63,3454.88,1965.09,3434.88Z" transform="translate(-1361.83 -1106.83)"/><path class="cls-1" d="M2084.68,3518.9c24.22,7.47,43.27,2.82,43.27,2.82-8-39.78-34.33-59.42-61.67-69.74a181.84,181.84,0,0,0-52-11.12C2031.76,3490.88,2060.13,3511.61,2084.68,3518.9Z" transform="translate(-1361.83 -1106.83)"/><path class="cls-1" d="M2013.81,3441a136.88,136.88,0,0,0-39.79,35.7c-16.9,23.07-30.9,58.86-9.83,100.46,0,0,17.79-8.41,32.3-29.62C2010.64,3526.37,2023.38,3492.64,2013.81,3441Z" transform="translate(-1361.83 -1106.83)"/><path class="cls-1" d="M2083.22,3601.56a95,95,0,0,0,39.28,19.92c24.47,5.58,43.36-.74,43.36-.74-5.72-19.56-14.68-33.86-27-43.92-12.07-10.15-26.74-16.36-40.06-20.57a170.2,170.2,0,0,0-52.47-6.9,169.68,169.68,0,0,0,16.93,31.13A127.19,127.19,0,0,0,2083.22,3601.56Z" transform="translate(-1361.83 -1106.83)"/><path class="cls-1" d="M2051.49,3584.8a189.54,189.54,0,0,0-5.66-35.29,144.13,144.13,0,0,0-37,38.94,95.08,95.08,0,0,0-15.39,44.62c-1.12,17,1.52,36.6,13.73,56.34,0,0,16.74-9.71,29.75-32.16a110.57,110.57,0,0,0,14.37-43.28A133.31,133.31,0,0,0,2051.49,3584.8Z" transform="translate(-1361.83 -1106.83)"/><path class="cls-1" d="M2127.76,3704a97.17,97.17,0,0,0,41.27,16.4c24.88,3.54,42.89-4.15,42.89-4.15-6.6-19.39-17.69-32.41-30.79-41.45-12.73-9.19-27.12-14.52-41.14-17.44a174,174,0,0,0-53.22-2.42C2099.57,3678.11,2113.3,3694,2127.76,3704Z" transform="translate(-1361.83 -1106.83)"/><path class="cls-1" d="M2053,3696.86c-6.69,13-12.05,28.69-12.15,45.95.26,17.06,5.48,35.86,18.56,54.9,0,0,16.2-11.21,27.29-34.63A107.89,107.89,0,0,0,2097,3719c.57-17.8-1.59-39.13-10.71-63.84A141.48,141.48,0,0,0,2053,3696.86Z" transform="translate(-1361.83 -1106.83)"/><path class="cls-1" d="M2265.83,3807.64c-17.4-36.72-47.86-49.25-76.79-52.66a180.78,180.78,0,0,0-53.14,1.9c29.07,44.29,61.76,57.41,87.3,58.53C2248.49,3816.78,2265.83,3807.64,2265.83,3807.64Z" transform="translate(-1361.83 -1106.83)"/><path class="cls-1" d="M2105.58,3801.43c-10.88,26.55-15.53,64.54,14.9,99.8,0,0,15.21-12.47,24.16-36.59,8.61-24,12.64-59.73-9.2-107.52A137.12,137.12,0,0,0,2105.58,3801.43Z" transform="translate(-1361.83 -1106.83)"/><path class="cls-1" d="M2289.83,3858.44c-14-7-29.95-9.35-43.91-10.19a169.87,169.87,0,0,0-52.54,6.05c15.56,21.3,32.61,34.12,48.5,41.66a94.73,94.73,0,0,0,42.88,9.86c25.39-.75,42-11.33,42-11.33C2316.23,3877.07,2304.27,3865.21,2289.83,3858.44Z" transform="translate(-1361.83 -1106.83)"/><path class="cls-1" d="M2192.94,3854.58a144.37,144.37,0,0,0-26.42,46.78,96.66,96.66,0,0,0-4,47c3.06,16.75,10.16,35.26,27,51.27,0,0,14.07-13.63,20.95-38.33a110.93,110.93,0,0,0,3.51-45.52C2211.64,3898.1,2205.12,3878,2192.94,3854.58Z" transform="translate(-1361.83 -1106.83)"/><path class="cls-1" d="M2353.94,3990.54c25-2.55,40.57-14.35,40.57-14.35-22.1-34.33-55.82-40.38-84-39.81a172.86,172.86,0,0,0-52.15,10.5C2293.63,3986.38,2329.08,3993.1,2353.94,3990.54Z" transform="translate(-1361.83 -1106.83)"/><path class="cls-1" d="M2235.68,3995.76c-7.33,28.71-4.16,65.56,30.55,96.32,0,0,13-14.8,18.16-40.23s2.26-60.53-26.46-104.65A142.12,142.12,0,0,0,2235.68,3995.76Z" transform="translate(-1361.83 -1106.83)"/><path class="cls-1" d="M2429.54,4069.57c24.83-4.71,39.45-17.77,39.45-17.77-25.57-31.64-58.54-36.07-87.19-32.64a177.77,177.77,0,0,0-51.24,14.8C2369.54,4069.88,2404.48,4074.63,2429.54,4069.57Z" transform="translate(-1361.83 -1106.83)"/><path class="cls-1" d="M2312,4084.41c-4.38,28.64.63,66.23,38.48,93.3,0,0,11.75-15.79,14.66-41.4,2.58-25.37-2.2-60.94-35-102A139,139,0,0,0,2312,4084.41Z" transform="translate(-1361.83 -1106.83)"/><path class="cls-1" d="M2511.12,4142.44c24.49-6.89,38-21.11,38-21.11-14.32-14.5-29.16-22.67-44.57-26s-31.06-2.18-45.19.8a168.81,168.81,0,0,0-49.46,18.47c20.12,17,40.14,25,57.14,28.72C2484.26,4146.85,2498.76,4146,2511.12,4142.44Z" transform="translate(-1361.83 -1106.83)"/><path class="cls-1" d="M2409.58,4114.94a145.27,145.27,0,0,0-14.43,51.85c-.91,14.44.72,30.61,7.51,46.45a89.87,89.87,0,0,0,38.62,43.19s10.41-16.67,11.1-42.26a116.74,116.74,0,0,0-7.63-44.95C2438.47,4152.38,2426.93,4134.89,2409.58,4114.94Z" transform="translate(-1361.83 -1106.83)"/><path class="cls-1" d="M2634.52,4184.37c-29.56-28.19-64-25.64-91.13-18.37a172,172,0,0,0-48,22.68c43.57,30.07,79.92,27.62,103.22,19.43C2622.12,4199.73,2634.52,4184.37,2634.52,4184.37Z" transform="translate(-1361.83 -1106.83)"/><path class="cls-1" d="M2485.09,4241.66c-.27,29.72,11.94,64.42,52.88,86.12,0,0,9-17.37,7.9-43.4-.94-26.32-12.52-59.14-50.82-95.3A143.08,143.08,0,0,0,2485.09,4241.66Z" transform="translate(-1361.83 -1106.83)"/><path class="cls-1" d="M2725,4239.75c-16-12.76-32.64-17.33-48.32-18.25s-30.73,2.46-44.1,7.56a175.06,175.06,0,0,0-46.2,26.8c23.28,12.54,43.72,18.05,61,19.12a96.05,96.05,0,0,0,43.64-8.52C2714,4255.94,2725,4239.75,2725,4239.75Z" transform="translate(-1361.83 -1106.83)"/><path class="cls-1" d="M2629.6,4304.19c-8.85-15.72-22.48-32-43.5-47.9a140.48,140.48,0,0,0-5.46,52.92c1.36,14.54,5.47,30.42,14.59,45.18,9.18,14.6,24,27.19,45.25,36.16,0,0,7.59-18.17,4.26-43.78C2643.11,4333.93,2638.71,4319.46,2629.6,4304.19Z" transform="translate(-1361.83 -1106.83)"/><path class="cls-1" d="M2819.6,4287.71a89.66,89.66,0,0,0-25.45-11.23,76,76,0,0,0-24.1-3.17c-15.7.41-30.59,5.31-43.57,11.59a176,176,0,0,0-43.61,30,132.36,132.36,0,0,0,62.4,14c17.44-.51,31.44-5.14,42.58-11.6C2809.92,4304.78,2819.6,4287.71,2819.6,4287.71Z" transform="translate(-1361.83 -1106.83)"/><path class="cls-1" d="M2729.9,4359.52c-10-15.08-25.7-28.84-47.28-44.14a140.55,140.55,0,0,0-1.38,53.65c2.59,14.26,8.07,29.59,18.47,43.37a93.54,93.54,0,0,0,19.45,19.13,103.42,103.42,0,0,0,28.53,13.39s6.06-18.7.55-43.74A120.37,120.37,0,0,0,2729.9,4359.52Z" transform="translate(-1361.83 -1106.83)"/><path class="cls-1" d="M2847.05,4375a95.45,95.45,0,0,0,41.49-15.07c20.76-13.76,29.11-31.88,29.11-31.88-18-9.69-34.71-12.51-50.48-10.49s-30.14,8-42.38,14.93a171,171,0,0,0-41,33.57C2808.51,4375.24,2829.47,4377.57,2847.05,4375Z" transform="translate(-1361.83 -1106.83)"/><path class="cls-1" d="M2834.23,4406.75c-11.62-13.28-27.62-27.4-50.69-40.2a143.36,143.36,0,0,0,3.05,53.51c3.58,14.41,10.22,29.43,21.88,41.91s27.84,23.59,50.42,28.68c0,0,4.39-18.81-2.94-43.91A109.85,109.85,0,0,0,2834.23,4406.75Z" transform="translate(-1361.83 -1106.83)"/><path class="cls-1" d="M3018.84,4359.8a81.66,81.66,0,0,0-51.3-5.87c-15.34,2.74-29.18,9.81-40.91,18a174.7,174.7,0,0,0-38.27,37.19c25.62,6.55,46.76,7,63.81,3.81a97.81,97.81,0,0,0,40.27-19C3012.09,4378.19,3018.84,4359.8,3018.84,4359.8Z" transform="translate(-1361.83 -1106.83)"/><path class="cls-1" d="M2942,4445.6c-12.41-13.12-29.58-25.68-53.82-36a140.68,140.68,0,0,0,7.57,52.7c4.84,13.79,12.7,28.21,25.14,40.34,12.52,11.75,29.88,20.52,52.73,24,0,0,2.94-19.48-6.54-43.53A107.56,107.56,0,0,0,2942,4445.6Z" transform="translate(-1361.83 -1106.83)"/><path class="cls-1" d="M3070.69,4381.34c-15.12,4.23-28.38,12.61-39.42,21.88a182,182,0,0,0-25.75,26.67,138,138,0,0,0-9.22,13.09,132.45,132.45,0,0,0,63.93-1.63c16.81-4.8,29.22-12.61,38.46-21.62,18.34-17.59,23.56-36.51,23.56-36.51C3102.8,4377.12,3085.81,4377.26,3070.69,4381.34Z" transform="translate(-1361.83 -1106.83)"/><path class="cls-1" d="M3052.78,4474.74c-13.4-12.17-32-21.71-56.62-31.25a123.14,123.14,0,0,0,1.43,16.12c1.47,9.65,4.28,23.18,10.32,36.22,6,13.2,15.06,26.73,28.5,37.56s31.26,19,54.46,19.84c0,0,1.32-19.62-10.14-42.54A120.24,120.24,0,0,0,3052.78,4474.74Z" transform="translate(-1361.83 -1106.83)"/><path class="cls-1" d="M3138.23,4425.37a171.27,171.27,0,0,0-31.62,42.6c52.57,6.12,83.5-13.45,100.16-31.58,16.79-18.57,20.45-37.81,20.45-37.81C3187.89,4387.45,3158.71,4406.26,3138.23,4425.37Z" transform="translate(-1361.83 -1106.83)"/><path class="cls-1" d="M3106.52,4468.48a143.09,143.09,0,0,0,16,51.11c13.78,26.44,41,51,87.28,51,0,0-.28-19.7-13.52-42.07C3183.05,4505.68,3157.31,4482.44,3106.52,4468.48Z" transform="translate(-1361.83 -1106.83)"/><path class="cls-1" d="M3315.86,4444.22c15.26-20.17,17.36-39.66,17.36-39.66-40.23-6.24-67.64,12.56-86.59,34.26a175.82,175.82,0,0,0-28.09,45.51c26.45,0,47.08-4.85,62.85-12.12A92.15,92.15,0,0,0,3315.86,4444.22Z" transform="translate(-1361.83 -1106.83)"/><path class="cls-1" d="M3279.46,4506.37c-15.22-9.63-34.95-17.54-61-21.53a140.26,140.26,0,0,0,20.17,49.17c16,24.24,44.89,48.79,91.09,43.4,0,0-1.86-19.59-16.88-40.52C3305.4,4526.24,3294.67,4516,3279.46,4506.37Z" transform="translate(-1361.83 -1106.83)"/><path class="cls-1" d="M3425.28,4443.69c13.59-21.28,14.11-41.1,14.11-41.1-40.59-3.67-66.46,17.9-83.58,41.25a168.93,168.93,0,0,0-24.32,46.89c26.35-.9,46.52-8.13,61.65-17A94.82,94.82,0,0,0,3425.28,4443.69Z" transform="translate(-1361.83 -1106.83)"/><path class="cls-1" d="M3394,4508c-15.94-8-36.23-13.59-62.48-16.7a145.17,145.17,0,0,0,24.05,48.11c17.84,22.68,48.64,44.2,94.27,35.8,0,0-3.42-19.16-20.06-38.87A110.89,110.89,0,0,0,3394,4508Z" transform="translate(-1361.83 -1106.83)"/><path class="cls-1" d="M3465,4439.43a173.31,173.31,0,0,0-20.44,49.18c26.11-4.1,45.75-11.64,60.11-21.71a97.41,97.41,0,0,0,29.51-33.23c11.83-22.21,10.77-41.77,10.77-41.77-20.49-.38-36.51,5.62-49.48,14.88C3482.48,4415.48,3472.55,4427.27,3465,4439.43Z" transform="translate(-1361.83 -1106.83)"/><path class="cls-1" d="M3508.27,4500.93c-16.54-6.71-37.32-11.9-63.66-11.8a141.64,141.64,0,0,0,27.82,45.52c9.89,10.75,22.82,21.08,39,27.18,16.12,5.55,35.55,7.05,57.91,1.22,0,0-5-19.05-23.21-37.44A107.59,107.59,0,0,0,3508.27,4500.93Z" transform="translate(-1361.83 -1106.83)"/><path class="cls-1" d="M3601.12,4391.18c-12.23,9.82-21.1,22.73-27.6,35.58a188.11,188.11,0,0,0-13.1,34.8,136.55,136.55,0,0,0-3.29,15.66,135.51,135.51,0,0,0,58.09-26.78,87.67,87.67,0,0,0,26.77-35.11c9.91-23.37,7.24-42.81,7.24-42.81a84.44,84.44,0,0,0-27,6.6A76.38,76.38,0,0,0,3601.12,4391.18Z" transform="translate(-1361.83 -1106.83)"/><path class="cls-1" d="M3661.42,4506a121.9,121.9,0,0,0-39.86-21.92c-17.12-5.85-38-7.59-64.36-6.33a122.22,122.22,0,0,0,7.69,14.26,132.79,132.79,0,0,0,23.76,29.07c10.73,9.78,24.4,18.67,41,23.33a92.51,92.51,0,0,0,27.08,3.44,108.49,108.49,0,0,0,30.78-6.74S3681,4522.55,3661.42,4506Z" transform="translate(-1361.83 -1106.83)"/><path class="cls-1" d="M3680.56,4405a170.92,170.92,0,0,0-12.23,51.56c25.25-7.69,43.31-18.62,55.73-31.31a95.68,95.68,0,0,0,23.82-37.17c8.13-23.52,3.77-43,3.77-43-20.18,3.23-35.19,11.13-46.49,22.3S3686.1,4392.1,3680.56,4405Z" transform="translate(-1361.83 -1106.83)"/><path class="cls-1" d="M3774.68,4476.83a109.93,109.93,0,0,0-41.54-18.6c-17.31-3.51-38.58-4.94-64.69-1.17a143.37,143.37,0,0,0,34.92,40.69c11.6,9.31,26,17.14,42.82,20s36.46,1.84,57.49-7.82C3803.68,4509.93,3795.75,4492.31,3774.68,4476.83Z" transform="translate(-1361.83 -1106.83)"/><path class="cls-1" d="M3785.41,4374.46a174.79,174.79,0,0,0-7.83,52.79c24.34-10.34,41.39-22.86,53-35.71a97.76,97.76,0,0,0,20.48-39.52c6-24.46.23-43.17.23-43.17a81.62,81.62,0,0,0-44.33,26.48C3796.45,4346.82,3789.76,4360.84,3785.41,4374.46Z" transform="translate(-1361.83 -1106.83)"/><path class="cls-1" d="M3885.08,4438.28a107.37,107.37,0,0,0-42.73-14.61c-17.82-2.89-39.09-2.44-64.61,4.08a140.9,140.9,0,0,0,38,37.28c12.22,8,27.22,14.7,44.47,16.79,17.08,1.72,36.21-1.84,56.48-12.93C3916.71,4468.89,3907.21,4451.63,3885.08,4438.28Z" transform="translate(-1361.83 -1106.83)"/><path class="cls-1" d="M3905.6,4294.49c-9.45,12.53-14.9,27.22-18.06,41.28a182.73,182.73,0,0,0-4.25,36.86,135.1,135.1,0,0,0,.63,16,133.34,133.34,0,0,0,49.81-40.11,88.23,88.23,0,0,0,17.4-40.57c3.91-25.09-3.42-43.29-3.42-43.29a86.32,86.32,0,0,0-24.62,13A76,76,0,0,0,3905.6,4294.49Z" transform="translate(-1361.83 -1106.83)"/><path class="cls-1" d="M3992.09,4391.12a121.15,121.15,0,0,0-44-11.54c-18-1.52-38.61,2.07-64,9.53a122.15,122.15,0,0,0,10.92,11.94c7,6.82,17.46,15.78,30.19,22.5s28.2,12.11,45.46,12.56a93.41,93.41,0,0,0,27.09-3.29,106.88,106.88,0,0,0,28.23-14S4015.13,4402.41,3992.09,4391.12Z" transform="translate(-1361.83 -1106.83)"/><path class="cls-1" d="M4000.7,4246c-8.21,13.59-12.46,28.65-14.68,42.49a170.84,170.84,0,0,0,.71,53,175.77,175.77,0,0,0,28.36-21.27,116.54,116.54,0,0,0,18-22.71,95.4,95.4,0,0,0,14.06-41.82,89.33,89.33,0,0,0-2.68-30.71,70.5,70.5,0,0,0-4.17-12C4021.64,4221.2,4008.92,4232.39,4000.7,4246Z" transform="translate(-1361.83 -1106.83)"/><path class="cls-1" d="M4121.94,4351.36a106.09,106.09,0,0,0-27.12-16.11,110.27,110.27,0,0,0-44.84-7.95,148.77,148.77,0,0,0-28.93,3.95A182.69,182.69,0,0,0,3987,4342a143.43,143.43,0,0,0,43.79,30.94c13.52,6.2,29.34,10.23,46.39,8.94a94.81,94.81,0,0,0,53.81-21.61A64.86,64.86,0,0,0,4121.94,4351.36Z" transform="translate(-1361.83 -1106.83)"/><path class="cls-1" d="M4091.73,4190.17c-7.43,13.69-10.53,28.9-11.45,43.16a174.39,174.39,0,0,0,5.24,53.07c21.07-16,34.71-32,42.71-47.57a97.64,97.64,0,0,0,10.33-43.24c-.07-25.16-10.23-41.9-10.23-41.9C4110.09,4163,4098.79,4175.88,4091.73,4190.17Z" transform="translate(-1361.83 -1106.83)"/><path class="cls-1" d="M4147.44,4267.14c-17.83,1.76-38.5,7.15-61.65,19.7a141.25,141.25,0,0,0,46,26.95c13.81,4.81,30,7.68,47.24,5.52,16.83-2.7,34.66-10.56,51.62-26.26,0,0-13.4-14.43-38.13-22.05A107.62,107.62,0,0,0,4147.44,4267.14Z" transform="translate(-1361.83 -1106.83)"/><path class="cls-1" d="M4169.93,4170.89a186.28,186.28,0,0,0,4.91,36.91,136.73,136.73,0,0,0,4.48,15.36c39.74-35,48.09-69.25,45.58-94.68-2.24-25.24-13.75-41.12-13.75-41.12C4177.31,4109.85,4169.13,4141.68,4169.93,4170.89Z" transform="translate(-1361.83 -1106.83)"/><path class="cls-1" d="M4179.63,4223.58a122,122,0,0,0,13.51,8.94,132.79,132.79,0,0,0,34.64,14.38c27.76,6.91,66.1,6.24,96.64-28.94,0,0-14.51-13.28-39.64-18.7C4259.82,4194.12,4223.86,4195.22,4179.63,4223.58Z" transform="translate(-1361.83 -1106.83)"/><path class="cls-1" d="M4258.06,4056.39c-4.91,15-5,31-3.9,44.89a170,170,0,0,0,13.46,51.18c9.25-9.41,16.76-18.46,22.38-27.49a127.2,127.2,0,0,0,12-26.42,94.84,94.84,0,0,0,3.65-43.88c-4.23-24.93-17.11-39.94-17.11-39.94C4272.7,4027.56,4262.71,4041.14,4258.06,4056.39Z" transform="translate(-1361.83 -1106.83)"/><path class="cls-1" d="M4325.53,4123.38a133.45,133.45,0,0,0-27.09,10.85,199,199,0,0,0-30.49,18.62,144.41,144.41,0,0,0,50,19.5,95.83,95.83,0,0,0,47.09-2.63c16.15-5.4,33.4-15.11,46.92-34,0,0-15.41-11.95-40.94-15.36A110.66,110.66,0,0,0,4325.53,4123.38Z" transform="translate(-1361.83 -1106.83)"/><path class="cls-1" d="M4332.86,3980.13a110.36,110.36,0,0,0-.58,44.76,172.94,172.94,0,0,0,17.8,50.16c34-40.58,35.77-76.53,29.67-100.84s-20-38.14-20-38.14C4344.25,3949.47,4336.32,3964.61,4332.86,3980.13Z" transform="translate(-1361.83 -1106.83)"/><path class="cls-1" d="M4350.45,4075.41a142.19,142.19,0,0,0,51.2,15.14c14.49,1.27,31.26.48,47.05-6.13s31.21-18.51,44-37.76c0,0-16.49-10.79-42.39-12.27S4390,4040.69,4350.45,4075.41Z" transform="translate(-1361.83 -1106.83)"/><path class="cls-1" d="M4424.1,3851.66c-27.64,29.83-27.48,63-20,90.94a179,179,0,0,0,21.87,48.6c30-43.65,29.83-78.91,21.27-103C4439.09,3864.29,4424.1,3851.66,4424.1,3851.66Z" transform="translate(-1361.83 -1106.83)"/><path class="cls-1" d="M4426.42,3991.53a138.18,138.18,0,0,0,52.2,10.89c28.89.23,65.51-10,86.89-51.32,0,0-17.29-9.4-43-8.64C4497,3943.51,4462.44,3953.26,4426.42,3991.53Z" transform="translate(-1361.83 -1106.83)"/><path class="cls-1" d="M4481.56,3762.49c-12.26,16.26-18.42,32-19.45,47.8s2.35,31.1,7.18,44.58a169,169,0,0,0,25.3,46.36c14-22.36,19.12-43.21,20.34-60.62s-2-31.83-7.05-43.46C4497.56,3773.87,4481.56,3762.49,4481.56,3762.49Z" transform="translate(-1361.83 -1106.83)"/><path class="cls-1" d="M4587.22,3845.11a114.41,114.41,0,0,0-43.45,13.91c-15.69,8.66-31.5,22.48-48.75,42.51a145.13,145.13,0,0,0,53.35,6.92,99.89,99.89,0,0,0,44.94-14,90.16,90.16,0,0,0,37.3-44.36S4612.63,3842.14,4587.22,3845.11Z" transform="translate(-1361.83 -1106.83)"/><path class="cls-1" d="M4531.81,3669.07c-23.72,33.25-16.31,66.92-5.26,92.77a172.65,172.65,0,0,0,29.31,44.32c23.49-47.45,16-83,4.5-104.95C4548.63,3679.08,4531.81,3669.07,4531.81,3669.07Z" transform="translate(-1361.83 -1106.83)"/><path class="cls-1" d="M4643.36,3742.53c-25.79,4.75-56.8,20.79-87,63.89a142.38,142.38,0,0,0,53.42,2.36c29.46-4,62.1-21,77.79-64.59C4687.52,3744.19,4668.9,3737.72,4643.36,3742.53Z" transform="translate(-1361.83 -1106.83)"/><path class="cls-1" d="M4609.43,3706.52c9.1-24.83,11.55-45.89,10.11-63.18a93.38,93.38,0,0,0-14.59-42c-13.73-21.19-31.34-29.79-31.34-29.79-19.69,35.57-11.17,67.83,2.68,93A175.46,175.46,0,0,0,4609.43,3706.52Z" transform="translate(-1361.83 -1106.83)"/><path class="cls-1" d="M4691.06,3635.77c-12.54,3.42-26,9.95-40.06,21-14.27,11-28.4,26.88-41.1,49.94a140.23,140.23,0,0,0,53.14-2.15c28.31-6.69,61.07-25.61,71.91-70.89C4735,3633.7,4715.89,3628.79,4691.06,3635.77Z" transform="translate(-1361.83 -1106.83)"/><path class="cls-1" d="M4654,3602.56a130.53,130.53,0,0,0,5-63.75c-3.21-17.26-9.47-30.35-17.46-40.44-15.66-20.06-33.95-27.19-33.95-27.19-8,18.74-9.93,35.54-7.2,51.07s9.72,29.54,17.83,41.5A170.76,170.76,0,0,0,4654,3602.56Z" transform="translate(-1361.83 -1106.83)"/><path class="cls-1" d="M4730.18,3525.56a117,117,0,0,0-38.72,24.08c-13.29,12.16-24.95,29.53-36.94,53.1a143.66,143.66,0,0,0,53.43-6.26c13.72-4.62,28.07-12.25,40.17-24.53a89.64,89.64,0,0,0,25.37-52.14S4754.12,3516.49,4730.18,3525.56Z" transform="translate(-1361.83 -1106.83)"/><path class="cls-1" d="M4690.29,3495.42c11.29-51.72-4.71-84.4-21.22-102.86-16.78-18.61-35.53-24.2-35.53-24.2-14.92,38,.57,68.87,17.55,91.23A172.19,172.19,0,0,0,4690.29,3495.42Z" transform="translate(-1361.83 -1106.83)"/><path class="cls-1" d="M4759.64,3412.37c-23.89,10.9-49.94,34.05-68.85,83.2a142.8,142.8,0,0,0,52.42-10.73c27.64-11,55.06-35.5,59.66-81.63C4802.87,3403.21,4783.23,3401.47,4759.64,3412.37Z" transform="translate(-1361.83 -1106.83)"/><path class="cls-1" d="M4688,3284.87c-18.53-17.21-37.71-21.26-37.71-21.26-10.26,39.34,5.6,68.5,25.33,89.56a175.79,175.79,0,0,0,42.35,32.56C4723.64,3333,4707,3302.09,4688,3284.87Z" transform="translate(-1361.83 -1106.83)"/><path class="cls-1" d="M4718.46,3385.83a140.07,140.07,0,0,0,51-15c25.67-13.41,53.11-39.72,52.4-86.27,0,0-19.67-.12-42,12.7C4758,3310.18,4732,3335.06,4718.46,3385.83Z" transform="translate(-1361.83 -1106.83)"/><path class="cls-1" d="M4725.12,3211a94.63,94.63,0,0,0-26.66-35c-19.92-15.65-39.52-18.15-39.52-18.15-7.62,40,11.1,67.88,32.69,87.27a169.47,169.47,0,0,0,44.19,28.92C4737.6,3247.72,4732.38,3226.93,4725.12,3211Z" transform="translate(-1361.83 -1106.83)"/><path class="cls-1" d="M4791.05,3180.84a111.06,111.06,0,0,0-31.81,32.76c-9.64,15.05-17.15,34.69-22.9,60.49a145,145,0,0,0,50.29-19.09,98.32,98.32,0,0,0,33-33.55c8.35-14.84,14.78-33.61,12-56.67C4831.68,3164.78,4812.21,3166.25,4791.05,3180.84Z" transform="translate(-1361.83 -1106.83)"/><path class="cls-1" d="M4729.49,3099.31a97.46,97.46,0,0,0-30.09-32.73c-20.9-14-40.46-14.95-40.46-14.95-2.45,20.37,1.9,36.93,9.8,50.78,7.41,13.82,18.08,24.89,29.43,33.61a173.22,173.22,0,0,0,46.88,25.28C4743.59,3134.9,4738.11,3114.61,4729.49,3099.31Z" transform="translate(-1361.83 -1106.83)"/><path class="cls-1" d="M4763.71,3099.17c-8.3,15.78-15.6,35.93-18.14,62.15a142,142,0,0,0,48.1-23.1c11.67-8.77,23.29-20.6,30.94-36.08,7.16-15.47,10.61-34.63,7.07-57.45,0,0-19.47,3-39.6,19.29A107.52,107.52,0,0,0,4763.71,3099.17Z" transform="translate(-1361.83 -1106.83)"/><path class="cls-1" d="M4724.3,2987.66c-9.54-14.6-20.8-24.11-32.14-30.23-22.27-12.24-41.89-11.57-41.89-11.57a89.53,89.53,0,0,0,3.77,27.57,76,76,0,0,0,9.87,22.22c8.54,13.17,20.49,23.31,32.63,31.08a186,186,0,0,0,33.26,16.57,135.11,135.11,0,0,0,15.25,4.87A134.87,134.87,0,0,0,4724.3,2987.66Z" transform="translate(-1361.83 -1106.83)"/><path class="cls-1" d="M4758.4,2984.77c-7.57,16.43-11.33,37-12.83,63.38a121.82,121.82,0,0,0,15-6.2,133.27,133.27,0,0,0,31.37-20.69c10.81-9.67,21-22.37,27.35-38.43a93.41,93.41,0,0,0,6.16-26.57,103.61,103.61,0,0,0-3.53-31.3s-19.11,4.61-37.56,22.4A120.82,120.82,0,0,0,4758.4,2984.77Z" transform="translate(-1361.83 -1106.83)"/><path class="cls-1" d="M4675.78,2849.31c-22.7-10.48-42.24-8.2-42.24-8.2,1.19,40.84,27.82,63,52.19,76.9a171.38,171.38,0,0,0,50.09,17.43C4726,2883.44,4698,2859.78,4675.78,2849.31Z" transform="translate(-1361.83 -1106.83)"/><path class="cls-1" d="M4766.81,2831.75c-17.85,19.47-32.31,51-30.47,103.63a143.34,143.34,0,0,0,44-30.57c21.11-21,36.42-54.34,22.54-98.55C4802.87,2806.26,4784.25,2812.41,4766.81,2831.75Z" transform="translate(-1361.83 -1106.83)"/><path class="cls-1" d="M4650.57,2742.93c-23.77-8.5-43-4.64-43-4.64,2.51,20.33,11.43,35.14,21.74,46.82s23.7,19.73,36.83,25.45a175.62,175.62,0,0,0,51.79,13.18c-7.88-25.25-18.65-43.48-30.29-56.35A94,94,0,0,0,4650.57,2742.93Z" transform="translate(-1361.83 -1106.83)"/><path class="cls-1" d="M4720.83,2759c-4.65,17.42-6.32,38.61-2.37,64.64a140.18,140.18,0,0,0,40.91-34c9.19-11.33,17.35-25.55,21.15-42.48s1.9-36.21-7-57.52c0,0-18.13,7.67-33.63,28.3C4732,2728.29,4725.24,2741.65,4720.83,2759Z" transform="translate(-1361.83 -1106.83)"/><path class="cls-1" d="M4617.1,2638.86c-24.62-6.43-43.49-1-43.49-1,5.05,19.73,13.7,34.27,25.29,45s25.66,17.57,39.37,22.14a170.7,170.7,0,0,0,52,9.09,130.53,130.53,0,0,0-34.77-53.67C4642.49,2648.62,4629.57,2642,4617.1,2638.86Z" transform="translate(-1361.83 -1106.83)"/><path class="cls-1" d="M4690.79,2713.9a143.8,143.8,0,0,0,38.65-37.42c8.09-12,14.86-26.78,17-43.89a89.66,89.66,0,0,0-11.51-56.82s-17.4,9.12-30.92,30.86a117.17,117.17,0,0,0-16.14,42.65C4684.71,2667,4686,2687.89,4690.79,2713.9Z" transform="translate(-1361.83 -1106.83)"/><path class="cls-1" d="M4574.75,2538.05c-24.62-4.6-42.94,2.35-42.94,2.35,11.21,39.27,42.26,54.39,69.33,61.84a172,172,0,0,0,52.9,4.67C4631.62,2559,4599,2542.71,4574.75,2538.05Z" transform="translate(-1361.83 -1106.83)"/><path class="cls-1" d="M4654.52,2606.72a142.7,142.7,0,0,0,35.15-40.35c15.27-25.53,22.19-61.64-2.15-101.09,0,0-16.64,10.54-28.77,33.52C4646.34,2522,4639.72,2556.18,4654.52,2606.72Z" transform="translate(-1361.83 -1106.83)"/><path class="cls-1" d="M4566.3,2455.7a94.49,94.49,0,0,0-41.94-14.68c-25.1-2.46-42.8,6-42.8,6,7.4,19.11,19.58,31.35,32.5,40.13s27.8,13.35,41.93,15.7a175.7,175.7,0,0,0,53.44.14C4595.63,2480.39,4580.74,2465.34,4566.3,2455.7Z" transform="translate(-1361.83 -1106.83)"/><path class="cls-1" d="M4641.28,2459.8c6.16-13.23,10.59-29,10.15-46.35s-7-35.58-20.82-54.06c0,0-15.72,11.85-25.74,35.64-5.1,11.93-8.47,26.57-8.45,44.43-.26,18,3.3,39,13.48,63.27A140.3,140.3,0,0,0,4641.28,2459.8Z" transform="translate(-1361.83 -1106.83)"/><path class="cls-1" d="M4466.48,2348.24c-25.41-.28-42.38,9.57-42.38,9.57,9.61,18,21.8,29.82,35.5,37.46s29.13,10.84,43.52,11.95a173.47,173.47,0,0,0,52.74-3.91,131.67,131.67,0,0,0-46.79-43.59C4493.67,2351.41,4479.38,2348.27,4466.48,2348.24Z" transform="translate(-1361.83 -1106.83)"/><path class="cls-1" d="M4556.31,2403.05a142.24,142.24,0,0,0,28.3-45.66c4.94-13.62,7.93-29.62,5.89-46.74s-9-35.45-25-52.28c0,0-14.67,13.08-22.54,37.48a119.28,119.28,0,0,0-5.21,45.24C4538.89,2359.12,4545.36,2379,4556.31,2403.05Z" transform="translate(-1361.83 -1106.83)"/><path class="cls-1" d="M4494.59,2308.24c-33.25-41.18-69.06-48.85-93.57-47.63-24.86,1.39-41.24,12.79-41.24,12.79,20.53,35.29,54.32,42.48,82.42,43.12A171.62,171.62,0,0,0,4494.59,2308.24Z" transform="translate(-1361.83 -1106.83)"/><path class="cls-1" d="M4519.37,2260.23c8.59-28.46,6.56-65.17-26.71-97.42,0,0-13.31,14-19.66,39.37-6.61,25.63-4.48,60.23,22,105.76A143.38,143.38,0,0,0,4519.37,2260.23Z" transform="translate(-1361.83 -1106.83)"/><path class="cls-1" d="M4328.58,2178.67c-24.92,3.63-40.05,16.07-40.05,16.07,11.83,16.74,26.25,26,41.29,31.08,14.62,5.41,30.13,6.31,44.38,5.18a174.43,174.43,0,0,0,51.82-12.73c-18.8-18.59-36.76-29.71-53.15-35.53A97.58,97.58,0,0,0,4328.58,2178.67Z" transform="translate(-1361.83 -1106.83)"/><path class="cls-1" d="M4412,2073.74s-12.39,15.31-16.41,40.86a107.31,107.31,0,0,0,2.58,45.1c4.16,17.51,12.55,37.1,28.25,58.24a141,141,0,0,0,20.13-49.31c2.8-14.34,3.32-30.76-1.25-47.51C4440.34,2104.75,4429.93,2088.31,4412,2073.74Z" transform="translate(-1361.83 -1106.83)"/><path class="cls-1" d="M4249.93,2102.66c-24.69,5.81-38.78,19.45-38.78,19.45a89.49,89.49,0,0,0,43.55,27.76c15.15,4.05,30.8,3.57,45,1.21a185.41,185.41,0,0,0,35.8-10,135.71,135.71,0,0,0,14.58-6.62,136,136,0,0,0-55.95-31A88.2,88.2,0,0,0,4249.93,2102.66Z" transform="translate(-1361.83 -1106.83)"/><path class="cls-1" d="M4350.45,2134.06a122.59,122.59,0,0,0,6.94-14.63,134,134,0,0,0,9.37-36.38c1.54-14.43.61-30.72-5.45-46.89-5.84-16.38-17.5-32-36.89-44.65,0,0-11.1,16.24-12.89,41.86-.85,12.73.47,27.86,5.95,45S4333.8,2113.55,4350.45,2134.06Z" transform="translate(-1361.83 -1106.83)"/><path class="cls-1" d="M4128.33,2055.78c14.86,13.95,29.79,21.82,45.54,24.27,15.54,2.68,31.34.64,45-2.46a170.43,170.43,0,0,0,48.79-20.58,171,171,0,0,0-30.36-18.3,127.54,127.54,0,0,0-27.88-8.11,95,95,0,0,0-44,2.63C4141.41,2040.84,4128.33,2055.78,4128.33,2055.78Z" transform="translate(-1361.83 -1106.83)"/><path class="cls-1" d="M4245.22,2029a188.07,188.07,0,0,0,22.73,27.57,144.16,144.16,0,0,0,12.21-52.26,95.5,95.5,0,0,0-9.25-46.28c-7.63-15.23-19.76-30.83-40.29-41.65,0,0-9.59,16.88-9.44,42.75a110.71,110.71,0,0,0,9.44,44.61A134.14,134.14,0,0,0,4245.22,2029Z" transform="translate(-1361.83 -1106.83)"/><path class="cls-1" d="M4040.35,1996.46c15.47,13.45,31.6,19.12,47.46,20.33a108.65,108.65,0,0,0,44.36-5.73,173.38,173.38,0,0,0,47.15-24.75c-22.73-13.5-42.54-20.41-60.15-21.65a97.28,97.28,0,0,0-43.89,6.6C4052,1980.75,4040.35,1996.46,4040.35,1996.46Z" transform="translate(-1361.83 -1106.83)"/><path class="cls-1" d="M4138.17,1936.2a168.51,168.51,0,0,0,41.46,49.69,141.67,141.67,0,0,0,7.71-52.8c-.78-14.55-4-30.92-12.71-45.75-8.82-14.62-22.79-28.24-43.67-38.1,0,0-8.33,17.86-6.11,43.68A108.09,108.09,0,0,0,4138.17,1936.2Z" transform="translate(-1361.83 -1106.83)"/><path class="cls-1" d="M3947.71,1944.81c33.49,23,66.2,18.3,92.85,6.76a180.43,180.43,0,0,0,45-28.5c-47.47-23.55-82.31-18.38-104.93-6.46C3958.07,1928.16,3947.71,1944.81,3947.71,1944.81Z" transform="translate(-1361.83 -1106.83)"/><path class="cls-1" d="M4085.79,1922.63a137.53,137.53,0,0,0,3.41-53.27c-3.95-28.51-19.16-63.52-63.2-78.69,0,0-6.84,18.45-2.41,43.8C4028.26,1859.52,4042.81,1892.4,4085.79,1922.63Z" transform="translate(-1361.83 -1106.83)"/><path class="cls-1" d="M3923.83,1856.47a94.61,94.61,0,0,0-42,13.11c-21.57,13.55-30.55,31-30.55,31,17.88,9.71,34.2,13.86,50.05,12.45,15.67-1.07,30.54-7,43.08-13.41a169.55,169.55,0,0,0,42.29-31.69C3962.58,1857.38,3941.32,1855.05,3923.83,1856.47Z" transform="translate(-1361.83 -1106.83)"/><path class="cls-1" d="M3937.94,1825.3c10.89,14.15,26.71,28,49,42.21a144.53,144.53,0,0,0-.78-53.75,97.51,97.51,0,0,0-20.25-42.55c-11.08-13-26.58-25.32-49.23-30.63,0,0-5.28,18.91,1.29,43.62A111.1,111.1,0,0,0,3937.94,1825.3Z" transform="translate(-1361.83 -1106.83)"/><path class="cls-1" d="M3751.65,1864.4c18.26,9.31,35.26,10.92,50.92,8.26a112.25,112.25,0,0,0,41.64-16.41,173.22,173.22,0,0,0,39.71-35.41c-50.4-16.3-84.39-4.14-104.54,10.64S3751.65,1864.4,3751.65,1864.4Z" transform="translate(-1361.83 -1106.83)"/><path class="cls-1" d="M3884.11,1820.36a142.08,142.08,0,0,0-5.32-53.16c-4.31-13.87-11.34-29.23-23.49-41.22s-29-21.91-51.62-26.44c0,0-3.74,19.35,4.7,43.89S3837.06,1796.75,3884.11,1820.36Z" transform="translate(-1361.83 -1106.83)"/><path class="cls-1" d="M3649.23,1837c38.09,14.11,68.65,1.57,91.67-16.07a179.35,179.35,0,0,0,36.68-38.67c-51.8-11.17-84.29,2.24-103.35,19.37C3655.22,1818.28,3649.23,1837,3649.23,1837Z" transform="translate(-1361.83 -1106.83)"/><path class="cls-1" d="M3777.74,1781.72a137.82,137.82,0,0,0-9.7-52.42c-10.76-26.74-34.06-57-80.5-60.93,0,0-2.12,19.56,8.37,43.07C3706.56,1734.55,3728.66,1763,3777.74,1781.72Z" transform="translate(-1361.83 -1106.83)"/><path class="cls-1" d="M3596.54,1817.48c14.94-4.86,27.94-14.28,38.5-23.51a169.7,169.7,0,0,0,33.29-41.06c-26-4.38-47.18-1.51-63.8,4.21a94.62,94.62,0,0,0-37.51,23c-17.58,18.16-22.05,37.45-22.05,37.45C3564.67,1822.69,3581.51,1822.76,3596.54,1817.48Z" transform="translate(-1361.83 -1106.83)"/><path class="cls-1" d="M3610.6,1723.44c14,11,32.74,20.68,57.85,29a144.72,144.72,0,0,0-13.87-51.94,96.87,96.87,0,0,0-30-36.32c-13.92-9.82-32-18-55.2-17.73,0,0-.49,19.47,11.87,42.08A110.9,110.9,0,0,0,3610.6,1723.44Z" transform="translate(-1361.83 -1106.83)"/><path class="cls-1" d="M3490.86,1802.25c14.49-6,26.56-15.5,36.39-25.92a173.63,173.63,0,0,0,29.88-44.08c-26.41-1.2-47.15,2.16-63.24,9.25a97.32,97.32,0,0,0-35.58,26.63c-16,19.38-18.92,38.75-18.92,38.75C3459.39,1811.37,3476.29,1808.71,3490.86,1802.25Z" transform="translate(-1361.83 -1106.83)"/><path class="cls-1" d="M3497.2,1707.44c14.87,9.79,34.18,19.13,60,24.29a141.59,141.59,0,0,0-18.13-50.18c-7.55-12.49-18.14-25.29-32.8-34.41-14.67-8.68-33.4-14-56.47-12.83,0,0,1.08,19.68,15.23,41.35A107.55,107.55,0,0,0,3497.2,1707.44Z" transform="translate(-1361.83 -1106.83)"/><path class="cls-1" d="M3349,1764.41c-14.44,20.91-15.75,40.49-15.75,40.49a88.43,88.43,0,0,0,27.84-1,76.16,76.16,0,0,0,23.1-7.58c14-7.17,25.27-18,34.22-29.32a187.75,187.75,0,0,0,19.82-31.49,137.22,137.22,0,0,0,6.38-14.68,136.08,136.08,0,0,0-62.3,14.6C3366.79,1743.43,3356.2,1753.74,3349,1764.41Z" transform="translate(-1361.83 -1106.83)"/><path class="cls-1" d="M3382.83,1701.24c15.6,9.15,35.67,15.07,61.78,19.1a123.37,123.37,0,0,0-4.67-15.52,132.68,132.68,0,0,0-17.45-33.24c-8.54-11.73-20.13-23.17-35.46-31.08a93.31,93.31,0,0,0-25.8-8.81,104.35,104.35,0,0,0-31.48.37s2.65,19.48,18.48,39.64A121.19,121.19,0,0,0,3382.83,1701.24Z" transform="translate(-1361.83 -1106.83)"/><path class="cls-1" d="M3331.49,1718.74c-52.73,4.56-79.11,29.9-91.8,51-12.74,21.56-12.47,41.13-12.47,41.13,40.78,3,65.6-21.25,81.86-44.07A171.15,171.15,0,0,0,3331.49,1718.74Z" transform="translate(-1361.83 -1106.83)"/><path class="cls-1" d="M3331.48,1718.22a143.33,143.33,0,0,0-26-46.85c-18.79-23.16-50.33-41.72-95.7-32.49,0,0,4.22,19.27,21.67,38.53C3249,1697.1,3278.91,1714.74,3331.48,1718.22Z" transform="translate(-1361.83 -1106.83)"/><path class="cls-1" d="M3200.15,1775.33a175.68,175.68,0,0,0,18.39-50.19c-25.91,5.26-45.14,14.19-59.13,24.47a91.62,91.62,0,0,0-28.15,34.31c-10.88,22.82-9,42.33-9,42.33C3162.85,1824.31,3185.94,1800.42,3200.15,1775.33Z" transform="translate(-1361.83 -1106.83)"/><path class="cls-1" d="M3154.44,1715.76c16.85,6.39,37.75,10.13,64,8.87a140.07,140.07,0,0,0-29.61-44.15c-20.49-20.52-53.77-38.8-98-24.24,0,0,5.78,18.82,24.7,36.31C3125,1701.49,3137.6,1709.31,3154.44,1715.76Z" transform="translate(-1361.83 -1106.83)"/><path class="cls-1" d="M3092.23,1792.31a169.31,169.31,0,0,0,14.38-50.81c-25.64,6.15-43.91,17.43-57,29.06a93.92,93.92,0,0,0-25.39,35.89c-8.91,23.89-5.43,43.22-5.43,43.22,20.1-3.14,35.58-9.79,47.32-20.49C3078,1818.79,3086.23,1805.24,3092.23,1792.31Z" transform="translate(-1361.83 -1106.83)"/><path class="cls-1" d="M3001.14,1716.67a111.85,111.85,0,0,0,40.8,20.56c17.26,4.75,38.23,6,64.58,3.76a145.17,145.17,0,0,0-33.27-42.3,99.11,99.11,0,0,0-41.91-21.44c-16.69-3.62-36.49-4-57.72,5.55C2973.62,1682.8,2980.91,1701.05,3001.14,1716.67Z" transform="translate(-1361.83 -1106.83)"/><path class="cls-1" d="M2986.26,1818.71a173.24,173.24,0,0,0,10-52.22c-49.94,17.62-69.56,47.94-76.59,71.91s-2.06,43-2.06,43c20.17-3.69,34.65-12.74,45.49-24.36A112.43,112.43,0,0,0,2986.26,1818.71Z" transform="translate(-1361.83 -1106.83)"/><path class="cls-1" d="M2889.28,1750.83c21.69,14.42,55.16,25,106.88,15.16a142.14,142.14,0,0,0-36.5-39c-11.86-8.4-26.76-16.35-43.71-18.49s-36.31.18-57.06,10.33C2858.89,1718.81,2867.67,1736.46,2889.28,1750.83Z" transform="translate(-1361.83 -1106.83)"/><path class="cls-1" d="M2882.69,1853.34a179.54,179.54,0,0,0,5.67-53c-48,22.54-65.61,53-70.36,78.14-5,24.8,1.6,43.27,1.6,43.27C2858.46,1909.9,2875.09,1881.3,2882.69,1853.34Z" transform="translate(-1361.83 -1106.83)"/><path class="cls-1" d="M2780.49,1793.71c22.5,11.92,57.3,21,107.69,6.15a137.71,137.71,0,0,0-39.54-35.76c-24.8-14.75-61.64-24.54-100.95.45C2747.69,1764.55,2757.88,1781.38,2780.49,1793.71Z" transform="translate(-1361.83 -1106.83)"/><path class="cls-1" d="M2765.92,1938.28c8.92-12.94,13.6-28.14,16.3-42.08a169.44,169.44,0,0,0,1.53-52.81c-23.34,12.27-38.34,27.57-48.15,42.07s-14.3,28.58-15.85,41c-2.82,25.32,5.26,43.22,5.26,43.22C2743.78,1961.81,2757.11,1951.49,2765.92,1938.28Z" transform="translate(-1361.83 -1106.83)"/><path class="cls-1" d="M2675.43,1845.07a112.45,112.45,0,0,0,44.56,10c17.88.35,38.55-3.48,63.55-12.11A144.9,144.9,0,0,0,2741,1810a98.64,98.64,0,0,0-45.89-10.6c-17.09.53-36.32,5.1-54.6,19.48C2640.48,1818.92,2652,1834.83,2675.43,1845.07Z" transform="translate(-1361.83 -1106.83)"/><path class="cls-1" d="M2685.85,1947.62a172.67,172.67,0,0,0-3-53.08c-44.16,29.22-55.74,63.52-56.8,88.38-1,25.06,8.45,42.18,8.45,42.18C2671.7,2008.23,2682.38,1975.56,2685.85,1947.62Z" transform="translate(-1361.83 -1106.83)"/><path class="cls-1" d="M2575.25,1905.38c24.61,8.82,59.56,10.76,107.37-11.29a142.31,142.31,0,0,0-44.93-29c-27.41-11.39-64.25-13.32-99.72,16.56C2538,1881.69,2550.79,1896.67,2575.25,1905.38Z" transform="translate(-1361.83 -1106.83)"/><path class="cls-1" d="M2593.82,2006.47a175.87,175.87,0,0,0-7.43-52.86c-20.46,16.73-33.13,33.78-40.63,49.42a93,93,0,0,0-8.61,43.56c1.15,25.22,12,41.54,12,41.54C2584.13,2067.35,2593.1,2035.25,2593.82,2006.47Z" transform="translate(-1361.83 -1106.83)"/><path class="cls-1" d="M2525.41,1975.53c17.89-2.29,38-9,60.69-22.35a139.9,139.9,0,0,0-47-25c-27.78-8.48-65.64-8.73-97.83,24.86,0,0,14,13.87,38.92,20.39C2492.75,1976.82,2507.61,1977.92,2525.41,1975.53Z" transform="translate(-1361.83 -1106.83)"/><path class="cls-1" d="M2501.06,2117.21c5.51-14.73,6.57-30.4,5.62-44.81a170.45,170.45,0,0,0-11.31-51.61,131.2,131.2,0,0,0-36.51,52.5c-6,16.5-7.18,31-5.36,43.75,3.33,25.22,15.49,40.62,15.49,40.62C2485.41,2145.57,2495.5,2131.93,2501.06,2117.21Z" transform="translate(-1361.83 -1106.83)"/><path class="cls-1" d="M2436.34,2047.53c17.62-3.77,36.48-12.83,58.71-27.14a143.66,143.66,0,0,0-49.25-21.59c-14.18-3-30.42-3.63-47.07.83s-33.85,13.89-48.21,32.13c0,0,15,12.67,40.28,17A118,118,0,0,0,2436.34,2047.53Z" transform="translate(-1361.83 -1106.83)"/><path class="cls-1" d="M2425.57,2145.62a171.67,171.67,0,0,0-15.64-50.72c-36,38.82-38.61,75.24-33.88,99.4,4.92,24.45,18.46,39,18.46,39C2426.57,2208,2428.92,2173.53,2425.57,2145.62Z" transform="translate(-1361.83 -1106.83)"/><path class="cls-1" d="M2409.58,2094.52a143.13,143.13,0,0,0-50.66-17.32c-29.38-4.47-65.46,2.7-92.69,40.19,0,0,15.83,11.25,41.79,13.92C2334.26,2134.17,2368.32,2127.27,2409.58,2094.52Z" transform="translate(-1361.83 -1106.83)"/><path class="cls-1" d="M2351.7,2269.72c3.27-15.25,2-30.75-1.18-44.7a174.26,174.26,0,0,0-20-49.51c-15.74,21.24-24.12,40.67-27.65,57.64a97.79,97.79,0,0,0,2.26,44.45c7.14,24.16,21.6,37.38,21.6,37.38A81.75,81.75,0,0,0,2351.7,2269.72Z" transform="translate(-1361.83 -1106.83)"/><path class="cls-1" d="M2276.53,2211.37c16.83-6.52,34.94-17.67,53.65-36.21a140.92,140.92,0,0,0-51.64-12.94c-14.59-.73-30.9,1.09-46.82,8-15.61,7.13-30.32,19.85-42.21,39.65,0,0,16.91,10.1,42.75,10.46A107.59,107.59,0,0,0,2276.53,2211.37Z" transform="translate(-1361.83 -1106.83)"/><path class="cls-1" d="M2265.83,2401.83a84.92,84.92,0,0,0,14.73-23.62,78,78,0,0,0,6.58-23.4c1.86-15.59-.86-31-5.21-44.75a184.64,184.64,0,0,0-15-34,137.61,137.61,0,0,0-8.62-13.5,134.6,134.6,0,0,0-22.77,59.77,88,88,0,0,0,5.48,43.84C2250.32,2389.81,2265.83,2401.83,2265.83,2401.83Z" transform="translate(-1361.83 -1106.83)"/><path class="cls-1" d="M2163.74,2315a121.83,121.83,0,0,0,43.78-12.25c16.33-7.8,32.36-21.22,50.41-40.52a121.13,121.13,0,0,0-15.46-4.79,134.38,134.38,0,0,0-37.38-4.16c-14.5.53-30.48,3.75-45.61,12.06a91.11,91.11,0,0,0-21.7,16.52,108.66,108.66,0,0,0-17.3,26.33S2138.13,2316.91,2163.74,2315Z" transform="translate(-1361.83 -1106.83)"/><path class="cls-1" d="M2202.28,2484.94a69.13,69.13,0,0,0,9.64,8.24c11.87-16.58,17.36-32.58,17.57-48.49s-3.75-31.07-8.79-44.14a170.93,170.93,0,0,0-27.32-45.38,175.45,175.45,0,0,0-13.8,32.65,123.63,123.63,0,0,0-4.08,28.74,95.23,95.23,0,0,0,8.9,43.18A90.1,90.1,0,0,0,2202.28,2484.94Z" transform="translate(-1361.83 -1106.83)"/><path class="cls-1" d="M2103.17,2415.06a110.34,110.34,0,0,0,42.76-15.72,138.09,138.09,0,0,0,22.94-18,182.62,182.62,0,0,0,24.07-26.42,143.82,143.82,0,0,0-53.44-4.64,93.29,93.29,0,0,0-80.08,61.51,64.78,64.78,0,0,0,12.27,3.1A105.05,105.05,0,0,0,2103.17,2415.06Z" transform="translate(-1361.83 -1106.83)"/><path class="cls-1" d="M2135.9,2452.59c-10.14,24.42-13.94,45.12-12.88,62.61a97.42,97.42,0,0,0,12.88,42.53c12.73,21.69,30,31,30,31,11-17.26,14.32-34,13.22-49.92-.62-15.63-5.49-30.27-11.92-43A174.15,174.15,0,0,0,2135.9,2452.59Z" transform="translate(-1361.83 -1106.83)"/><path class="cls-1" d="M2051.28,2519.85a108,108,0,0,0,40.87-19.39c14.37-10.58,29.63-25.6,43.29-48.11a141.18,141.18,0,0,0-53.31-.1c-14.34,2.83-29.88,8.46-43.55,19.08-13.18,10.83-24.63,26.62-31.37,48.73C2007.21,2520.06,2026.07,2525.75,2051.28,2519.85Z" transform="translate(-1361.83 -1106.83)"/><path class="cls-1" d="M2098.39,2565.49a135.75,135.75,0,0,0-11.62-11c-16.55,50.33-6.55,84,8.51,104.74,14.71,20.64,32.67,28.52,32.67,28.52,17.76-36.5,8.81-68.06-6.65-92.87A186.5,186.5,0,0,0,2098.39,2565.49Z" transform="translate(-1361.83 -1106.83)"/><path class="cls-1" d="M2007.84,2628.42c24.1-8.21,54.66-27.29,78.45-74.13a122.86,122.86,0,0,0-16.18-.91,133.62,133.62,0,0,0-37.13,5.1c-27.43,8.07-60.26,28-68.79,73.85C1964.19,2632.33,1983.43,2636.45,2007.84,2628.42Z" transform="translate(-1361.83 -1106.83)"/><path class="cls-1" d="M2046.32,2660.12a169.67,169.67,0,0,0-5.46,35,126.79,126.79,0,0,0,3.08,28.87,94.82,94.82,0,0,0,19.12,39.69,90.33,90.33,0,0,0,23.52,20.1,69.43,69.43,0,0,0,11.36,5.63c7.38-19,8.9-35.81,5.21-51.29-3.42-15.4-11.31-29.24-19.33-40.67A170.49,170.49,0,0,0,2046.32,2660.12Z" transform="translate(-1361.83 -1106.83)"/><path class="cls-1" d="M1942.84,2747.68a104.49,104.49,0,0,0,30.54-7.5,110.62,110.62,0,0,0,37.69-25.66,133.87,133.87,0,0,0,17.82-23.09,189.44,189.44,0,0,0,16.94-31.47,144,144,0,0,0-53,8.49,95.12,95.12,0,0,0-39.31,26.1,93.37,93.37,0,0,0-23.32,53.11A64.61,64.61,0,0,0,1942.84,2747.68Z" transform="translate(-1361.83 -1106.83)"/><path class="cls-1" d="M2017.06,2832.47a97.54,97.54,0,0,0,22.91,38.1c17.66,17.93,36.65,22.75,36.65,22.75,6.47-19.43,5.53-36.51.57-51.65-4.34-15-12.7-28-22-38.82a174.05,174.05,0,0,0-40.85-34.24C2010.42,2794.76,2011.84,2815.77,2017.06,2832.47Z" transform="translate(-1361.83 -1106.83)"/><path class="cls-1" d="M1948.66,2854.48a107.56,107.56,0,0,0,34.86-28.78c11.44-13.75,22.51-32,30.29-57.22a141.38,141.38,0,0,0-51.73,12.92c-13.23,6.23-26.87,15.5-37.62,29.12-10.12,13.72-17.34,31.83-18.46,54.92C1906,2865.44,1925.68,2866.36,1948.66,2854.48Z" transform="translate(-1361.83 -1106.83)"/><path class="cls-1" d="M1991.56,2879.42a135.17,135.17,0,0,0,8.2,63.44,88,88,0,0,0,25.47,36.06c19.36,16.46,38.71,19.73,38.71,19.73a87,87,0,0,0,1.79-27.78,76,76,0,0,0-5.2-23.73c-5.72-14.61-15.4-26.94-25.72-37a187.52,187.52,0,0,0-29.29-22.9A135.26,135.26,0,0,0,1991.56,2879.42Z" transform="translate(-1361.83 -1106.83)"/><path class="cls-1" d="M1965.78,2938.86c10.7-14.59,18.55-34,25.27-59.52a123.33,123.33,0,0,0-15.9,3.07,133.45,133.45,0,0,0-34.87,14c-12.53,7.32-25.09,17.7-34.51,32.18a93.17,93.17,0,0,0-11.37,24.8,106.27,106.27,0,0,0-2.78,31.37s19.65-.68,41.3-14.41A121.37,121.37,0,0,0,1965.78,2938.86Z" transform="translate(-1361.83 -1106.83)"/><path class="cls-1" d="M2019.59,3088.18c20.16,14.84,39.65,16.56,39.65,16.56,7.21-40.3-14.59-67.46-35.64-85.9a171,171,0,0,0-45.57-27.12C1977.22,3044.63,1999.91,3073.43,2019.59,3088.18Z" transform="translate(-1361.83 -1106.83)"/><path class="cls-1" d="M1977.52,2991.68a143.43,143.43,0,0,0-49.24,21.12c-25,16.4-46.46,45.89-41.92,91.94,0,0,19.59-2.26,40.52-17.69C1948.3,3071.59,1968.73,3043.63,1977.52,2991.68Z" transform="translate(-1361.83 -1106.83)"/><path class="cls-1" d="M3359.41,4211.78c420.24,0,785.79-234.09,973.4-579H2386C2573.63,3977.69,2939.18,4211.78,3359.41,4211.78Z" transform="translate(-1361.83 -1106.83)"/><path class="cls-1" d="M3359.41,1997.05c-420.23,0-785.78,234.09-973.39,579H4332.81C4145.2,2231.14,3779.65,1997.05,3359.41,1997.05Z" transform="translate(-1361.83 -1106.83)"/><text class="cls-3" transform="translate(996.34 1884.99)">PRI<tspan class="cls-4" x="480.02" y="0">V</tspan><tspan class="cls-5" x="670.52" y="0">A</tspan><tspan class="cls-6" x="879.62" y="0">CI</tspan><tspan class="cls-7" x="1166.98" y="0">D</tspan><tspan class="cls-8" x="1386.8" y="0">ADE</tspan></text><text class="cls-9" transform="translate(986.22 2290.41)">p<tspan class="cls-10" x="270.99" y="0">r</tspan><tspan x="444.34" y="0">o</tspan><tspan class="cls-10" x="715.83" y="0">t</tspan><tspan class="cls-11" x="884.74" y="0">egida</tspan></text></svg>