<svg id="Camada_1" data-name="Camada 1" xmlns="http://www.w3.org/2000/svg" viewBox="0 0 3921.17 3921.17"><defs><style>.cls-1,.cls-6{fill:#1c1c1b;}.cls-2{font-size:658px;font-family:Calibri;}.cls-3{letter-spacing:-0.01em;}.cls-4{font-size:530.26px;font-family:Calibri-Bold, Calibri;font-weight:700;letter-spacing:0.1em;}.cls-5{letter-spacing:0.08em;}.cls-6{font-size:425.01px;font-family:Antonio-Regular, Antonio Regular;}.cls-7{fill:none;}</style></defs><polygon class="cls-1" points="1849.37 989.21 1926.93 948.44 2004.49 989.21 1989.68 902.85 2052.42 841.69 1965.71 829.09 1926.93 750.52 1888.15 829.09 1801.44 841.69 1864.19 902.85 1849.37 989.21"/><polygon class="cls-1" points="2161.22 1035.16 2220.88 1003.79 2280.54 1035.16 2269.15 968.73 2317.41 921.68 2250.71 911.99 2220.88 851.55 2191.05 911.99 2124.35 921.68 2172.62 968.73 2161.22 1035.16"/><polygon class="cls-1" points="1573.32 1035.16 1632.98 1003.79 1692.64 1035.16 1681.24 968.73 1729.51 921.68 1662.81 911.99 1632.98 851.55 1603.15 911.99 1536.45 921.68 1584.71 968.73 1573.32 1035.16"/><path class="cls-1" d="M3977.62,3518.62c-88.55-1-191.86-3.34-302.54-3.74l-346.82-1.62-346.82,1.63c-110.68.47-214,2.74-302.54,3.75s-162.34,3.52-214,4.51l-81.17,2.37,81.17,2.38c51.66,1,125.45,3.39,214,4.51s191.86,3.28,302.54,3.75l346.82,1.63,346.82-1.61c110.68-.41,214-2.74,302.54-3.75s162.34-3.53,214-4.51l81.17-2.4-81.17-2.38C4140,3522.15,4066.17,3519.71,3977.62,3518.62Z" transform="translate(-1398.83 -1143.83)"/><text class="cls-2" transform="translate(749.96 2224.81)"><tspan class="cls-3">C</tspan><tspan x="345.06" y="0">OMPRA</tspan></text><text class="cls-4" transform="translate(1101.85 2767.46)">segu<tspan class="cls-5" x="1226.53" y="0">r</tspan><tspan x="1456.39" y="0">a</tspan></text><text class="cls-6" transform="translate(1465.24 1497.84)">100%</text><path class="cls-7" d="M2258,3851.09l-62.32,138,149.61-23.34-47.12,143.91,146.25-39.29L2413,4218.51l141.17-54.78-15.24,150.65,134.44-69.68,1.13,151.43,126.1-83.83,17.55,150.4,116.25-97,33.83,147.6,105-109.14,49.71,143,92.51-119.88,64.88,136.82L3359.41,4435l79.1,129.13,64.88-136.82,92.5,119.89,49.7-143,105,109.14,33.84-147.59,116.22,97,17.56-150.4,126.09,83.84,1.12-151.42,134.43,69.69-15.23-150.65,141.16,54.79-31.36-148.14,146.23,39.3-47.09-143.91,149.61,23.34-62.31-138,151.25,7.07-76.85-130.47,151.13-9.34-90.56-121.36L4745,3571.34l-103.24-110.77,145.53-41.84-114.68-98.89,140.12-57.4L4688,3176.53l133.16-72.11L4688,3032.31l124.71-85.9L4672.62,2889l114.69-98.87-145.53-41.84L4745,2637.56l-149.22-25.72,90.58-121.35-151.14-9.34,76.88-130.46-151.26,7.08,62.32-138-149.61,23.34,47.11-143.91-146.24,39.29,31.38-148.14-141.17,54.78,15.24-150.65-134.44,69.67-1.13-151.42-126.11,83.83-17.55-150.41-116.23,97-33.85-147.6-105,109.13-49.71-143-92.52,119.89-64.88-136.83-79.1,129.13-79.11-129.13-64.87,136.83-92.5-119.9-49.7,143-105-109.14-33.84,147.59-116.22-97.05-17.56,150.4-126.09-83.84-1.12,151.42L2539,1894.41l15.24,150.65-141.16-54.79,31.36,148.14-146.24-39.3L2345.31,2243l-149.62-23.35,62.32,138-151.27-7.07,76.86,130.47-151.14,9.35L2123,2611.78l-149.23,25.73,103.25,110.77-145.53,41.84L2046.21,2889l-140.13,57.41,124.7,85.91-133.15,72.1,133.15,72.12-124.7,85.9,140.12,57.38-114.69,98.87L2077,3460.53l-103.25,110.76L2123,3597l-90.58,121.35,151.14,9.34-76.88,130.46ZM4029.39,2449.63l33.29-67.44,33.29,67.44,74.43,10.82-53.86,52.5,12.72,74.14-66.58-35-66.58,35,12.72-74.14-53.87-52.5Zm-1406.54,0,33.29-67.44,33.29,67.44,74.44,10.82L2710,2513l12.71,74.14-66.57-35-66.58,35,12.72-74.14-53.87-52.5Z" transform="translate(-1398.83 -1143.83)"/><path class="cls-7" d="M3359.4,1243.83c-1025.91,0-1860.56,834.66-1860.56,1860.6S2333.49,4965,3359.4,4965,5220,4130.34,5220,3104.43,4385.34,1243.83,3359.4,1243.83ZM5131.2,2988.32a37,37,0,0,1-35.56,40.29c-20.78.8-38.06-15.08-39.94-35.41-1.55-20.35,14.07-38.38,34.88-40.25S5129.58,2966.9,5131.2,2988.32Zm3.22,154.83c-.54,21.46-17.91,38.07-38.78,37.09s-37.38-18.31-36.86-38.72,17.88-37,38.78-37.1S5135,3121.68,5134.42,3143.15ZM5115,2834.24c2.72,21.31-11.89,40.71-32.61,43.33s-39.62-11.66-42.18-31.91c-3.58-20.08,10.17-39.36,30.74-43S5111.21,2813.09,5115,2834.24Zm-30.46-151.93c4.84,20.94-7.8,41.49-28.23,45.91s-40.7-8.1-45.28-28c-4.24-20,7.27-40.24,27.45-45.72S5080,2661.29,5084.49,2682.31Zm-43.41-148.73c6.89,20.35-3.71,41.88-23.67,48.08s-41.43-4.45-48-23.77,4.06-40.85,23.67-48.08S5034.2,2513.22,5041.08,2533.58Zm-106.34-163.72c18.9-8.92,41.39-.28,50.24,19.3a37,37,0,0,1-19.54,50,38.82,38.82,0,0,1-49.69-19.53C4907.34,2401.08,4915.85,2378.78,4934.74,2369.86Zm-70.22-134.37c18-10.54,41.36-4,52.06,14.65a37.83,37.83,0,1,1-66.31,36.44C4840.09,2268.9,4846.48,2246,4864.52,2235.49ZM4783,2107.68a37.81,37.81,0,0,1,53.11,10.05c11.61,18.08,6.69,41.8-11,53s-40.9,6.31-51.91-10.88A37.92,37.92,0,0,1,4783,2107.68Zm-92.26-120.33a37.13,37.13,0,0,1,53.49,5.66c13.27,16.88,10.55,40.84-6.06,53.51s-40.32,9.93-52.92-6.12C4672.87,2024.14,4674.8,2000.83,4690.72,1987.35Zm-102.25-112c14.71-14.83,38.66-14.26,53.49,1.28s14.3,39.56-1.16,53.61-39.41,13.49-53.49-1.28S4573.75,1890.2,4588.47,1875.37Zm-112-102.26c13.37-16,37.38-17.67,53.61-3.6s17.81,38,3.47,53.52c-14,15.17-37.85,16.6-53.37,3.34S4463.11,1789.16,4476.49,1773.11Zm-120.33-92.25c11.93-17.15,35.8-21,53.3-8.51,17.74,12.13,20.47,37.06,7.86,53.34-13,16.75-35.77,19.13-52.65,7.63C4348,1721.5,4344.23,1698,4356.16,1680.86Zm-127.81-81.55c10.38-18.11,33.93-24.16,52.51-13.39,18.09,11.58,23.58,35.22,12.27,52.79s-34.41,22.88-51.58,11.85C4223.89,1640.35,4218,1617.45,4228.35,1599.31ZM4094,1529.09c8.67-18.77,32-27.68,50.94-17.54,19.13,9.79,26.74,32.71,17,51.2s-32.35,25.94-50.5,16.63C4093.43,1569.72,4085.11,1548.26,4094,1529.09Zm-140-58.36c7.17-19.94,29-29.32,49.06-21.5s29.64,29.9,21.55,49.17-30,28.83-49,21.34S3947.06,1490.11,3954,1470.73Zm-144.71-45.32c5.32-20.21,26.38-31.84,47.05-26s32.26,26.83,25.82,47c-6.28,19.65-27.31,31.16-47,25.67S3804,1445.61,3809.31,1425.41Zm-148.1-32.48c3.53-20.59,23.53-34.23,44.68-30.44s34.25,24.94,29.72,45.08c-4.64,20.63-24.3,32.63-44.4,29.14S3657.69,1413.52,3661.21,1392.93Zm-108.49-53.82c21.31,2.7,36.32,21.68,33.54,42.39s-21.45,35.41-41.69,32.83-35.42-20-33.68-41.07C3512.58,1352.7,3531.42,1336.29,3552.72,1339.11Zm-154.59-9.7c21.47.55,38.08,17.92,37.1,38.78s-18.31,37.39-38.72,36.87-37-17.89-37.1-38.78S3376.67,1328.88,3398.13,1329.41Zm-154.83,3.22a37,37,0,0,1,40.29,35.56c.81,20.78-15.07,38.06-35.41,39.94-20.35,1.56-38.37-14.06-40.25-34.87S3221.89,1334.26,3243.3,1332.63Zm-154.07,16.25c21.31-2.72,40.71,11.89,43.33,32.62s-11.67,39.61-31.91,42.17c-20.09,3.58-39.36-10.17-43.05-30.74S3068.07,1352.62,3089.23,1348.88Zm-151.94,30.46c20.94-4.83,41.5,7.81,45.92,28.23s-8.11,40.7-28,45.28c-20,4.24-40.23-7.27-45.71-27.44S2916.27,1383.84,2937.29,1379.34Zm-148.73,43.41c20.35-6.89,41.88,3.72,48.08,23.67s-4.44,41.44-23.76,48-40.86-4.07-48.08-23.67S2768.21,1429.64,2788.56,1422.75Zm-144.42,56.1a37,37,0,0,1,50.05,19.55,38.84,38.84,0,0,1-19.54,49.69c-18.59,8.41-40.89-.1-49.81-19S2624.56,1487.7,2644.14,1478.85Zm-139,68.41a37.83,37.83,0,1,1,36.45,66.3c-17.69,10.18-40.57,3.8-51.1-14.25S2486.49,1558,2505.12,1547.26Zm-132.4,80.48c18.08-11.6,41.79-6.69,53,11s6.3,40.89-10.88,51.9a37.83,37.83,0,1,1-42.09-62.87ZM2248,1719.63c16.89-13.27,40.85-10.56,53.51,6.06s9.93,40.31-6.12,52.92c-16.25,12.35-39.57,10.42-53.05-5.5A37.13,37.13,0,0,1,2248,1719.63Zm-116.35,102.25c15.54-14.82,39.55-14.3,53.61,1.15s13.48,39.41-1.29,53.5-38.77,13.55-53.61-1.16S2116.09,1836.7,2131.64,1821.88Zm-107.15,111.85c14-16.32,38-17.81,53.53-3.47,15.17,14,16.6,37.86,3.34,53.38s-37.21,17.08-53.26,3.71S2010.43,1950,2024.49,1933.73Zm-97.16,120.65c12.13-17.75,37.07-20.47,53.34-7.86,16.76,13,19.14,35.76,7.64,52.64-11.82,16.64-35.31,20.44-52.47,8.52S1914.88,2071.88,1927.33,2054.38ZM1840.9,2183c11.59-18.09,35.23-23.58,52.8-12.27s22.87,34.41,11.85,51.58c-10.21,17.67-33.11,23.6-51.25,13.21S1830.14,2201.56,1840.9,2183Zm-74.37,135.94c9.79-19.13,32.72-26.73,51.2-17s25.94,32.36,16.64,50.51c-9.66,18-31.13,26.3-50.29,17.44C1765.31,2361.19,1756.4,2337.86,1766.53,2318.91Zm-62.31,141.85c7.88-20,29.9-29.64,49.16-21.56s28.83,30,21.35,49-29.63,28.58-49,21.61C1705.78,2502.64,1696.39,2480.77,1704.22,2460.76Zm-49.79,146.71c5.79-20.69,26.82-32.25,47-25.81,19.66,6.28,31.17,27.3,25.67,47s-26.48,31.22-46.68,25.91S1648.55,2628.14,1654.43,2607.47Zm-37,150.48c3.71-21.17,25-34.26,45.09-29.73,20.63,4.64,32.63,24.3,29.13,44.41s-23.18,33.51-43.77,30S1613.69,2779.09,1617.47,2758Zm-23.38,153.17c2.7-21.31,21.69-36.33,42.39-33.55s35.41,21.45,32.83,41.7-20,35.42-41.07,33.68C1607.68,2951.25,1591.28,2932.42,1594.09,2911.12Zm29.09,117.49c20.87,1,37.38,18.31,36.86,38.72s-17.88,37-38.78,37.09-37.4-17.25-36.86-38.72S1602.31,3027.63,1623.18,3028.61Zm-35.56,191.92a37,37,0,0,1,35.56-40.29c20.78-.81,38.06,15.08,39.94,35.41,1.55,20.35-14.07,38.37-34.88,40.26S1589.24,3242,1587.62,3220.53Zm16.25,154.08c-2.73-21.31,11.88-40.71,32.61-43.33s39.62,11.66,42.18,31.91c3.57,20.09-10.17,39.35-30.74,43S1607.61,3395.76,1603.87,3374.61Zm30.46,151.93c-4.84-20.93,7.81-41.49,28.23-45.91s40.69,8.1,45.27,28c4.25,20-7.26,40.24-27.44,45.72S1638.83,3547.56,1634.33,3526.54Zm43.4,148.73c-6.88-20.35,3.72-41.88,23.67-48.07s41.44,4.44,48,23.76-4.06,40.85-23.67,48.08S1684.62,3695.62,1677.73,3675.27ZM1784.08,3839c-18.9,8.92-41.4.28-50.24-19.3a37,37,0,0,1,19.54-50,38.83,38.83,0,0,1,49.69,19.53C1811.48,3807.77,1803,3830.08,1784.08,3839Zm70.22,134.37c-18,10.54-41.36,4-52-14.65a37.83,37.83,0,1,1,66.3-36.45C1878.72,3940,1872.34,3962.83,1854.3,3973.36Zm81.54,127.82a37.84,37.84,0,0,1-53.12-10.06c-11.6-18.08-6.68-41.8,11-53s40.89-6.31,51.89,10.88A37.92,37.92,0,0,1,1935.84,4101.18Zm92.26,120.32a37.12,37.12,0,0,1-53.48-5.66c-13.28-16.88-10.56-40.85,6.05-53.51s40.31-9.93,52.92,6.12C2046,4184.71,2044,4208,2028.1,4221.5ZM1710.42,3104.42c0-910.71,738.27-1649,1649-1649s1649,738.28,1649,1649-738.28,1649-1649,1649S1710.42,4015.14,1710.42,3104.42Zm419.93,1229.06c-14.71,14.83-38.66,14.26-53.49-1.28s-14.3-39.56,1.16-53.61,39.41-13.49,53.49,1.28S2145.07,4318.65,2130.35,4333.48Zm112,102.26c-13.37,16.05-37.38,17.67-53.62,3.61s-17.8-38-3.46-53.53c14-15.17,37.85-16.6,53.37-3.34S2255.71,4419.69,2242.33,4435.74ZM2362.66,4528c-11.93,17.15-35.8,21-53.3,8.52-17.74-12.14-20.47-37.07-7.86-53.35,13-16.75,35.77-19.13,52.65-7.64C2370.78,4487.34,2374.59,4510.84,2362.66,4528Zm127.81,81.55c-10.38,18.11-33.93,24.16-52.51,13.39-18.09-11.58-23.59-35.22-12.27-52.79s34.41-22.88,51.57-11.85C2494.93,4568.5,2500.87,4591.4,2490.47,4609.54Zm134.37,70.22c-8.67,18.76-32,27.68-51,17.54-19.12-9.79-26.73-32.72-17-51.2s32.35-25.94,50.5-16.63C2625.39,4639.13,2633.71,4660.59,2624.84,4679.76Zm140,58.36c-7.17,19.94-29.05,29.32-49.06,21.5s-29.64-29.9-21.55-49.17,30-28.83,49-21.34S2771.77,4718.74,2764.8,4738.12Zm144.71,45.32c-5.32,20.21-26.38,31.84-47.05,26s-32.25-26.83-25.82-47c6.28-19.65,27.3-31.16,47-25.67S2914.82,4763.24,2909.51,4783.44Zm148.09,32.48c-3.52,20.59-23.52,34.23-44.67,30.44s-34.26-24.94-29.72-45.08c4.63-20.63,24.3-32.63,44.4-29.14S3061.13,4795.32,3057.6,4815.92Zm108.5,53.82c-21.31-2.7-36.33-21.68-33.54-42.39s21.45-35.41,41.69-32.83,35.42,20,33.68,41.07C3206.24,4856.15,3187.4,4872.55,3166.1,4869.74Zm154.59,9.69c-21.47-.54-38.08-17.91-37.1-38.78s18.31-37.37,38.72-36.86,37,17.89,37.1,38.78S3342.16,4880,3320.69,4879.43Zm154.82-3.21a37,37,0,0,1-40.28-35.57c-.81-20.78,15.08-38,35.41-39.93,20.35-1.56,38.37,14.06,40.25,34.87S3496.93,4874.59,3475.51,4876.22ZM3629.59,4860c-21.31,2.72-40.71-11.89-43.33-32.62s11.67-39.61,31.91-42.18c20.09-3.57,39.36,10.18,43,30.75S3650.75,4856.23,3629.59,4860Zm151.93-30.47c-20.93,4.84-41.49-7.8-45.91-28.22s8.11-40.7,28-45.28c20-4.24,40.23,7.27,45.71,27.44S3802.55,4825,3781.52,4829.5Zm148.74-43.4c-20.35,6.89-41.88-3.72-48.08-23.67s4.44-41.44,23.76-48,40.85,4.07,48.08,23.67S3950.61,4779.21,3930.26,4786.1Zm144.41-56.1a37,37,0,0,1-50-19.55,38.84,38.84,0,0,1,19.54-49.69c18.59-8.41,40.89.1,49.81,19S4094.25,4721.15,4074.67,4730Zm139-68.41c-18.71,10.55-42.28,2.9-51.78-15.49a38,38,0,0,1,15.33-50.81c17.68-10.18,40.56-3.8,51.1,14.25S4232.33,4650.89,4213.7,4661.59Zm132.41-80.48c-18.08,11.6-41.8,6.69-53-11s-6.3-40.89,10.88-51.9a37.83,37.83,0,1,1,42.1,62.87Zm124.72-91.89c-16.89,13.28-40.85,10.56-53.51-6.06s-9.93-40.31,6.11-52.92c16.26-12.35,39.58-10.42,53.06,5.5A37.13,37.13,0,0,1,4470.83,4489.22ZM4587.18,4387c-15.55,14.82-39.55,14.3-53.61-1.15s-13.49-39.41,1.29-53.5,38.77-13.56,53.61,1.16S4602.72,4372.15,4587.18,4387Zm107.15-111.85c-14,16.32-38,17.8-53.53,3.47-15.17-14-16.6-37.86-3.33-53.38s37.2-17.08,53.25-3.71S4708.4,4258.89,4694.33,4275.12Zm97.16-120.65c-12.13,17.75-37.07,20.47-53.34,7.86-16.76-13-19.14-35.77-7.64-52.64,11.82-16.64,35.31-20.45,52.47-8.51S4803.94,4137,4791.49,4154.47Zm86.43-128.59c-11.59,18.09-35.23,23.58-52.79,12.27s-22.88-34.41-11.86-51.58c10.21-17.67,33.11-23.6,51.25-13.21S4888.68,4007.29,4877.92,4025.88Zm74.37-135.94c-9.79,19.13-32.72,26.73-51.21,17s-25.93-32.36-16.63-50.51c9.66-18,31.13-26.3,50.29-17.44C4953.51,3847.66,4962.43,3871,4952.29,3889.94Zm62.31-141.85c-7.88,20-29.9,29.64-49.16,21.56s-28.83-30-21.35-49,29.63-28.58,49-21.61C5013,3706.21,5022.42,3728.08,5014.6,3748.09Zm49.79-146.71c-5.79,20.69-26.82,32.25-47,25.82-19.65-6.28-31.16-27.31-25.66-47s26.48-31.23,46.68-25.91S5070.26,3580.71,5064.39,3601.38Zm37-150.48c-3.71,21.17-25,34.26-45.09,29.73-20.63-4.64-32.63-24.3-29.14-44.41s23.19-33.51,43.78-30S5105.13,3429.75,5101.35,3450.9Zm23.38-153.17c-2.7,21.31-21.69,36.33-42.39,33.55s-35.41-21.45-32.83-41.69,20-35.43,41.07-33.68C5111.14,3257.59,5127.54,3276.43,5124.73,3297.73Z" transform="translate(-1398.83 -1143.83)"/><path class="cls-1" d="M3359.41,4753.42c910.71,0,1649-738.28,1649-1649s-738.28-1649-1649-1649-1649,738.28-1649,1649S2448.69,4753.42,3359.41,4753.42Zm-1327-1035.06L2123,3597l-149.22-25.72L2077,3460.53l-145.53-41.84,114.69-98.87-140.12-57.38,124.7-85.9-133.15-72.12,133.15-72.1-124.7-85.91L2046.21,2889l-114.69-98.88,145.53-41.84L1973.8,2637.51,2123,2611.78l-90.57-121.35,151.14-9.35-76.86-130.47,151.27,7.07-62.32-138L2345.31,2243l-47.11-143.91,146.24,39.3-31.36-148.14,141.16,54.79L2539,1894.41l134.44,69.69,1.12-151.42,126.09,83.84,17.56-150.4,116.22,97.05,33.84-147.59,105,109.14,49.7-143,92.5,119.9,64.87-136.83,79.11,129.13,79.1-129.13,64.88,136.83,92.52-119.89,49.71,143,105-109.13,33.85,147.6,116.23-97,17.55,150.41,126.11-83.83,1.13,151.42,134.44-69.67-15.24,150.65,141.17-54.78-31.38,148.14,146.24-39.29-47.11,143.91,149.61-23.34-62.32,138,151.26-7.08-76.88,130.46,151.14,9.34-90.58,121.35L4745,2637.56l-103.25,110.76,145.53,41.84L4672.62,2889l140.12,57.38L4688,3032.31l133.16,72.11L4688,3176.53l124.71,85.91-140.12,57.4,114.68,98.89-145.53,41.84L4745,3571.34l-149.22,25.73,90.56,121.36-151.13,9.34,76.85,130.47-151.25-7.07,62.31,138-149.61-23.34,47.09,143.91-146.23-39.3,31.36,148.14-141.16-54.79,15.23,150.65-134.43-69.69-1.12,151.42-126.09-83.84-17.56,150.4-116.22-97-33.84,147.59-105-109.14-49.7,143-92.5-119.89-64.88,136.82L3359.41,4435,3280.3,4564.1l-64.88-136.82-92.51,119.88-49.71-143-105,109.14-33.83-147.6-116.25,97-17.55-150.4-126.1,83.83-1.13-151.43-134.44,69.68,15.24-150.65L2413,4218.51l31.38-148.14-146.25,39.29,47.12-143.91-149.61,23.34,62.32-138-151.26,7.07,76.88-130.46Z" transform="translate(-1398.83 -1143.83)"/><path class="cls-1" d="M1663.12,3215.65c-1.88-20.33-19.16-36.22-39.94-35.41a37,37,0,0,0-35.56,40.29c1.62,21.42,19.82,37.26,40.62,35.38S1664.67,3236,1663.12,3215.65Z" transform="translate(-1398.83 -1143.83)"/><path class="cls-1" d="M1647.92,3406.23c20.57-3.69,34.31-22.95,30.74-43-2.56-20.25-21.45-34.53-42.18-31.91s-35.34,22-32.61,43.33C1607.61,3395.76,1627.35,3409.92,1647.92,3406.23Z" transform="translate(-1398.83 -1143.83)"/><path class="cls-1" d="M1707.83,3508.61c-4.58-19.88-24.85-32.41-45.27-28s-33.07,25-28.23,45.91c4.5,21,25.91,33.26,46.06,27.79S1712.08,3528.58,1707.83,3508.61Z" transform="translate(-1398.83 -1143.83)"/><path class="cls-1" d="M1749.38,3651c-6.54-19.32-28-30-48-23.76s-30.55,27.72-23.67,48.07,28.38,31,48,23.77S1755.92,3670.29,1749.38,3651Z" transform="translate(-1398.83 -1143.83)"/><path class="cls-1" d="M1803.07,3789.18a38.83,38.83,0,0,0-49.69-19.53,37,37,0,0,0-19.54,50c8.84,19.58,31.34,28.22,50.24,19.3S1811.48,3807.77,1803.07,3789.18Z" transform="translate(-1398.83 -1143.83)"/><path class="cls-1" d="M1817.73,3906.94a37.74,37.74,0,0,0-15.48,51.77c10.69,18.63,34,25.19,52,14.65s24.42-33.41,14.25-51.1A38,38,0,0,0,1817.73,3906.94Z" transform="translate(-1398.83 -1143.83)"/><path class="cls-1" d="M1893.7,4038.15c-17.66,11.17-22.58,34.89-11,53a37.83,37.83,0,1,0,62.87-42.09C1934.59,4031.84,1911.34,4027,1893.7,4038.15Z" transform="translate(-1398.83 -1143.83)"/><path class="cls-1" d="M1980.67,4162.33c-16.61,12.66-19.33,36.63-6.05,53.51a37.12,37.12,0,0,0,53.48,5.66c15.92-13.48,17.85-36.79,5.49-53.05C2021,4152.4,1997.29,4149.66,1980.67,4162.33Z" transform="translate(-1398.83 -1143.83)"/><path class="cls-1" d="M2078,4278.59c-15.46,14.05-16,38.06-1.16,53.61s38.78,16.11,53.49,1.28,15.24-38.84,1.16-53.61S2093.47,4264.53,2078,4278.59Z" transform="translate(-1398.83 -1143.83)"/><path class="cls-1" d="M2185.25,4385.82c-14.34,15.51-12.86,39.56,3.46,53.53s40.25,12.44,53.62-3.61,11.72-39.9-3.71-53.26S2199.27,4370.65,2185.25,4385.82Z" transform="translate(-1398.83 -1143.83)"/><path class="cls-1" d="M2354.15,4475.52c-16.88-11.49-39.67-9.11-52.65,7.64-12.61,16.28-9.88,41.21,7.86,53.35,17.5,12.45,41.37,8.63,53.3-8.52S2370.78,4487.34,2354.15,4475.52Z" transform="translate(-1398.83 -1143.83)"/><path class="cls-1" d="M2477.26,4558.29c-17.16-11-40.26-5.71-51.57,11.85s-5.82,41.21,12.27,52.79c18.58,10.77,42.13,4.72,52.51-13.39S2494.93,4568.5,2477.26,4558.29Z" transform="translate(-1398.83 -1143.83)"/><path class="cls-1" d="M2607.4,4629.47c-18.15-9.31-40.77-1.86-50.5,16.63s-2.13,41.41,17,51.2c19,10.14,42.28,1.22,51-17.54C2633.71,4660.59,2625.39,4639.13,2607.4,4629.47Z" transform="translate(-1398.83 -1143.83)"/><path class="cls-1" d="M2743.18,4689.11c-19-7.49-40.91,2.07-49,21.34s1.56,41.29,21.55,49.17,41.89-1.56,49.06-21.5C2771.77,4718.74,2762.18,4696.54,2743.18,4689.11Z" transform="translate(-1398.83 -1143.83)"/><path class="cls-1" d="M2883.6,4736.76c-19.66-5.49-40.68,6-47,25.67-6.43,20.15,5.13,41.18,25.82,47s41.73-5.76,47.05-26S2903.22,4742.33,2883.6,4736.76Z" transform="translate(-1398.83 -1143.83)"/><path class="cls-1" d="M3027.61,4772.14c-20.1-3.49-39.77,8.51-44.4,29.14-4.54,20.14,8.56,41.38,29.72,45.08s41.15-9.85,44.67-30.44S3047.7,4775.72,3027.61,4772.14Z" transform="translate(-1398.83 -1143.83)"/><path class="cls-1" d="M3174.25,4794.52c-20.24-2.58-38.91,12.13-41.69,32.83s12.23,39.69,33.54,42.39,40.14-13.59,41.83-34.15C3209.67,4814.51,3194.48,4797.22,3174.25,4794.52Z" transform="translate(-1398.83 -1143.83)"/><path class="cls-1" d="M3322.31,4803.79c-20.41-.51-37.74,16-38.72,36.86s15.63,38.24,37.1,38.78,38.8-16,38.72-36.86S3342.72,4804.31,3322.31,4803.79Z" transform="translate(-1398.83 -1143.83)"/><path class="cls-1" d="M3470.64,4800.72c-20.33,1.88-36.22,19.15-35.41,39.93a37,37,0,0,0,40.28,35.57c21.42-1.63,37.26-19.82,35.38-40.63S3491,4799.16,3470.64,4800.72Z" transform="translate(-1398.83 -1143.83)"/><path class="cls-1" d="M3618.17,4785.17c-20.24,2.57-34.53,21.45-31.91,42.18s22,35.34,43.33,32.62c21.16-3.74,35.31-23.49,31.62-44.05S3638.26,4781.6,3618.17,4785.17Z" transform="translate(-1398.83 -1143.83)"/><path class="cls-1" d="M3763.6,4756c-19.88,4.58-32.41,24.86-28,45.28s25,33.06,45.91,28.22c21-4.5,33.26-25.91,27.79-46.06S3783.57,4751.76,3763.6,4756Z" transform="translate(-1398.83 -1143.83)"/><path class="cls-1" d="M3905.94,4714.45c-19.32,6.54-30,28-23.76,48s27.73,30.56,48.08,23.67,31-28.37,23.76-48S3925.27,4707.92,3905.94,4714.45Z" transform="translate(-1398.83 -1143.83)"/><path class="cls-1" d="M4044.17,4660.76a38.84,38.84,0,0,0-19.54,49.69,37,37,0,0,0,50,19.55c19.58-8.85,28.23-31.35,19.31-50.24S4062.76,4652.35,4044.17,4660.76Z" transform="translate(-1398.83 -1143.83)"/><path class="cls-1" d="M4177.25,4595.29a38,38,0,0,0-15.33,50.81c9.5,18.39,33.07,26,51.78,15.49s25.18-34,14.65-52.05S4194.93,4585.11,4177.25,4595.29Z" transform="translate(-1398.83 -1143.83)"/><path class="cls-1" d="M4304,4518.24c-17.18,11-22.05,34.25-10.88,51.9s34.9,22.57,53,11a37.83,37.83,0,1,0-42.1-62.87Z" transform="translate(-1398.83 -1143.83)"/><path class="cls-1" d="M4423.43,4430.24c-16,12.61-18.78,36.31-6.11,52.92s36.62,19.34,53.51,6.06a37.13,37.13,0,0,0,5.66-53.48C4463,4419.82,4439.69,4417.89,4423.43,4430.24Z" transform="translate(-1398.83 -1143.83)"/><path class="cls-1" d="M4534.86,4332.32c-14.78,14.09-15.35,38-1.29,53.5s38.06,16,53.61,1.15,16.12-38.78,1.29-53.49S4549.63,4318.24,4534.86,4332.32Z" transform="translate(-1398.83 -1143.83)"/><path class="cls-1" d="M4637.47,4225.21c-13.27,15.52-11.84,39.36,3.33,53.38,15.52,14.33,39.56,12.85,53.53-3.47s12.45-40.24-3.61-53.62S4650.83,4209.79,4637.47,4225.21Z" transform="translate(-1398.83 -1143.83)"/><path class="cls-1" d="M4783,4101.18c-17.16-11.94-40.65-8.13-52.47,8.51-11.5,16.87-9.12,39.66,7.64,52.64,16.27,12.61,41.21,9.89,53.34-7.86C4803.94,4137,4800.13,4113.1,4783,4101.18Z" transform="translate(-1398.83 -1143.83)"/><path class="cls-1" d="M4864.52,3973.36c-18.14-10.39-41-4.46-51.25,13.21-11,17.17-5.71,40.27,11.86,51.58s41.2,5.82,52.79-12.27C4888.68,4007.29,4882.63,3983.75,4864.52,3973.36Z" transform="translate(-1398.83 -1143.83)"/><path class="cls-1" d="M4934.74,3839c-19.16-8.86-40.63-.55-50.29,17.44-9.3,18.15-1.85,40.77,16.63,50.51s41.42,2.13,51.21-17C4962.43,3871,4953.51,3847.66,4934.74,3839Z" transform="translate(-1398.83 -1143.83)"/><path class="cls-1" d="M4993.11,3699c-19.39-7-41.59,2.61-49,21.61s2.08,40.92,21.35,49,41.28-1.57,49.16-21.56S5013,3706.21,4993.11,3699Z" transform="translate(-1398.83 -1143.83)"/><path class="cls-1" d="M5038.43,3554.33c-20.2-5.32-41.11,6.28-46.68,25.91s6,40.68,25.66,47c20.16,6.43,41.19-5.13,47-25.82S5058.63,3559.64,5038.43,3554.33Z" transform="translate(-1398.83 -1143.83)"/><path class="cls-1" d="M5070.9,3406.23c-20.59-3.52-40.2,9.9-43.78,30s8.51,39.77,29.14,44.41c20.14,4.53,41.38-8.56,45.09-29.73S5091.5,3409.75,5070.9,3406.23Z" transform="translate(-1398.83 -1143.83)"/><path class="cls-1" d="M5090.58,3255.91c-21.09-1.75-38.38,13.45-41.07,33.68s12.12,38.91,32.83,41.69,39.69-12.24,42.39-33.55S5111.14,3257.59,5090.58,3255.91Z" transform="translate(-1398.83 -1143.83)"/><path class="cls-1" d="M5097.56,3104.42c-20.9.09-38.26,16.69-38.78,37.1s16,37.75,36.86,38.72,38.24-15.63,38.78-37.09S5118.45,3104.34,5097.56,3104.42Z" transform="translate(-1398.83 -1143.83)"/><path class="cls-1" d="M5055.7,2993.2c1.88,20.33,19.16,36.21,39.94,35.41a37,37,0,0,0,35.56-40.29c-1.62-21.42-19.82-37.26-40.62-35.37S5054.15,2972.85,5055.7,2993.2Z" transform="translate(-1398.83 -1143.83)"/><path class="cls-1" d="M5070.9,2802.62c-20.57,3.68-34.32,23-30.74,43,2.56,20.25,21.45,34.53,42.18,31.91s35.33-22,32.61-43.33C5111.21,2813.09,5091.46,2798.93,5070.9,2802.62Z" transform="translate(-1398.83 -1143.83)"/><path class="cls-1" d="M5011,2700.24c4.58,19.88,24.87,32.41,45.28,28s33.07-25,28.23-45.91c-4.5-21-25.91-33.26-46.06-27.79S5006.74,2680.27,5011,2700.24Z" transform="translate(-1398.83 -1143.83)"/><path class="cls-1" d="M4969.44,2557.89c6.54,19.32,28,30,48,23.77s30.56-27.73,23.67-48.08-28.37-31-48-23.77S4962.9,2538.56,4969.44,2557.89Z" transform="translate(-1398.83 -1143.83)"/><path class="cls-1" d="M4915.75,2419.67a38.82,38.82,0,0,0,49.69,19.53,37,37,0,0,0,19.54-50c-8.85-19.58-31.34-28.22-50.24-19.3S4907.34,2401.08,4915.75,2419.67Z" transform="translate(-1398.83 -1143.83)"/><path class="cls-1" d="M4901.08,2301.91a37.75,37.75,0,0,0,15.5-51.77c-10.7-18.63-34-25.19-52.06-14.65s-24.43,33.41-14.25,51.09A38,38,0,0,0,4901.08,2301.91Z" transform="translate(-1398.83 -1143.83)"/><path class="cls-1" d="M4825.13,2170.7c17.65-11.17,22.57-34.89,11-53a37.83,37.83,0,1,0-62.87,42.09C4784.23,2177,4807.48,2181.87,4825.13,2170.7Z" transform="translate(-1398.83 -1143.83)"/><path class="cls-1" d="M4738.15,2046.52c16.61-12.67,19.33-36.63,6.06-53.51a37.13,37.13,0,0,0-53.49-5.66c-15.92,13.48-17.85,36.79-5.49,53.05C4697.83,2056.45,4721.53,2059.19,4738.15,2046.52Z" transform="translate(-1398.83 -1143.83)"/><path class="cls-1" d="M4640.8,1930.26c15.46-14,16-38.06,1.16-53.61s-38.78-16.11-53.49-1.28-15.24,38.84-1.16,53.61S4625.34,1944.32,4640.8,1930.26Z" transform="translate(-1398.83 -1143.83)"/><path class="cls-1" d="M4533.57,1823c14.34-15.52,12.85-39.55-3.47-53.52s-40.24-12.45-53.61,3.6-11.72,39.9,3.71,53.26S4519.55,1838.2,4533.57,1823Z" transform="translate(-1398.83 -1143.83)"/><path class="cls-1" d="M4364.67,1733.32c16.88,11.5,39.67,9.12,52.65-7.63,12.61-16.28,9.88-41.21-7.86-53.34-17.5-12.46-41.37-8.64-53.3,8.51S4348,1721.5,4364.67,1733.32Z" transform="translate(-1398.83 -1143.83)"/><path class="cls-1" d="M4241.55,1650.56c17.17,11,40.27,5.71,51.58-11.85s5.82-41.21-12.27-52.79c-18.58-10.77-42.13-4.72-52.51,13.39S4223.89,1640.35,4241.55,1650.56Z" transform="translate(-1398.83 -1143.83)"/><path class="cls-1" d="M4111.42,1579.38c18.15,9.31,40.77,1.86,50.5-16.63s2.13-41.41-17-51.2c-18.95-10.14-42.27-1.23-50.94,17.54C4085.11,1548.26,4093.43,1569.72,4111.42,1579.38Z" transform="translate(-1398.83 -1143.83)"/><path class="cls-1" d="M3975.63,1519.74c19,7.49,40.92-2.07,49-21.34s-1.57-41.28-21.55-49.17-41.89,1.56-49.06,21.5C3947.06,1490.11,3956.64,1512.31,3975.63,1519.74Z" transform="translate(-1398.83 -1143.83)"/><path class="cls-1" d="M3835.22,1472.09c19.65,5.49,40.68-6,47-25.67,6.44-20.15-5.13-41.18-25.82-47s-41.73,5.76-47.05,26S3815.6,1466.52,3835.22,1472.09Z" transform="translate(-1398.83 -1143.83)"/><path class="cls-1" d="M3691.21,1436.71c20.1,3.49,39.76-8.51,44.4-29.14,4.53-20.14-8.56-41.38-29.72-45.08s-41.15,9.85-44.68,30.44S3671.12,1433.13,3691.21,1436.71Z" transform="translate(-1398.83 -1143.83)"/><path class="cls-1" d="M3544.57,1414.33c20.24,2.58,38.91-12.13,41.69-32.83s-12.23-39.69-33.54-42.39-40.14,13.59-41.83,34.15C3509.15,1394.34,3524.34,1411.63,3544.57,1414.33Z" transform="translate(-1398.83 -1143.83)"/><path class="cls-1" d="M3396.51,1405.06c20.41.52,37.74-16,38.72-36.87s-15.63-38.23-37.1-38.78-38.8,16-38.72,36.87S3376.1,1404.54,3396.51,1405.06Z" transform="translate(-1398.83 -1143.83)"/><path class="cls-1" d="M3248.18,1408.13c20.34-1.88,36.22-19.16,35.41-39.94a37,37,0,0,0-40.29-35.56c-21.41,1.63-37.25,19.82-35.37,40.63S3227.83,1409.69,3248.18,1408.13Z" transform="translate(-1398.83 -1143.83)"/><path class="cls-1" d="M3100.65,1423.67c20.24-2.56,34.53-21.45,31.91-42.17s-22-35.34-43.33-32.62c-21.16,3.74-35.31,23.49-31.63,44S3080.56,1427.25,3100.65,1423.67Z" transform="translate(-1398.83 -1143.83)"/><path class="cls-1" d="M2955.22,1452.85c19.88-4.58,32.41-24.86,28-45.28s-25-33.06-45.92-28.23c-21,4.5-33.26,25.92-27.78,46.07S2935.25,1457.09,2955.22,1452.85Z" transform="translate(-1398.83 -1143.83)"/><path class="cls-1" d="M2812.88,1494.4c19.32-6.54,30-28,23.76-48s-27.73-30.56-48.08-23.67-31,28.37-23.76,48S2793.55,1500.94,2812.88,1494.4Z" transform="translate(-1398.83 -1143.83)"/><path class="cls-1" d="M2674.65,1548.09a38.84,38.84,0,0,0,19.54-49.69,37,37,0,0,0-50.05-19.55c-19.58,8.85-28.21,31.35-19.3,50.24S2656.06,1556.5,2674.65,1548.09Z" transform="translate(-1398.83 -1143.83)"/><path class="cls-1" d="M2541.57,1613.56a37.83,37.83,0,1,0-36.45-66.3c-18.63,10.7-25.18,34-14.65,52S2523.88,1623.74,2541.57,1613.56Z" transform="translate(-1398.83 -1143.83)"/><path class="cls-1" d="M2414.81,1690.61c17.18-11,22.05-34.25,10.88-51.9s-34.89-22.57-53-11a37.83,37.83,0,1,0,42.09,62.87Z" transform="translate(-1398.83 -1143.83)"/><path class="cls-1" d="M2295.38,1778.61c16-12.61,18.79-36.31,6.12-52.92s-36.62-19.33-53.51-6.06a37.13,37.13,0,0,0-5.66,53.48C2255.81,1789,2279.13,1791,2295.38,1778.61Z" transform="translate(-1398.83 -1143.83)"/><path class="cls-1" d="M2184,1876.53c14.77-14.09,15.35-38,1.29-53.5s-38.07-16-53.61-1.15-16.12,38.77-1.29,53.49S2169.19,1890.61,2184,1876.53Z" transform="translate(-1398.83 -1143.83)"/><path class="cls-1" d="M2081.36,1983.64c13.26-15.52,11.83-39.36-3.34-53.38-15.52-14.34-39.56-12.85-53.53,3.47s-12.45,40.24,3.61,53.62S2068,1999.07,2081.36,1983.64Z" transform="translate(-1398.83 -1143.83)"/><path class="cls-1" d="M1935.84,2107.68c17.16,11.92,40.65,8.12,52.47-8.52,11.5-16.88,9.12-39.66-7.64-52.64-16.27-12.61-41.21-9.89-53.34,7.86C1914.88,2071.88,1918.69,2095.74,1935.84,2107.68Z" transform="translate(-1398.83 -1143.83)"/><path class="cls-1" d="M1854.3,2235.49c18.14,10.39,41,4.46,51.25-13.21,11-17.17,5.71-40.27-11.85-51.58s-41.21-5.82-52.8,12.27C1830.14,2201.56,1836.18,2225.1,1854.3,2235.49Z" transform="translate(-1398.83 -1143.83)"/><path class="cls-1" d="M1784.08,2369.86c19.16,8.86,40.63.55,50.29-17.44,9.3-18.15,1.85-40.77-16.64-50.51s-41.41-2.13-51.2,17C1756.4,2337.86,1765.31,2361.19,1784.08,2369.86Z" transform="translate(-1398.83 -1143.83)"/><path class="cls-1" d="M1725.71,2509.81c19.39,7,41.59-2.61,49-21.61s-2.08-40.92-21.35-49-41.28,1.57-49.16,21.56S1705.78,2502.64,1725.71,2509.81Z" transform="translate(-1398.83 -1143.83)"/><path class="cls-1" d="M1680.39,2654.52c20.2,5.31,41.11-6.28,46.68-25.91s-6-40.67-25.67-47c-20.15-6.44-41.18,5.12-47,25.81S1660.19,2649.21,1680.39,2654.52Z" transform="translate(-1398.83 -1143.83)"/><path class="cls-1" d="M1647.92,2802.62c20.59,3.52,40.2-9.9,43.77-30s-8.5-39.77-29.13-44.41c-20.14-4.53-41.38,8.56-45.09,29.73S1627.32,2799.1,1647.92,2802.62Z" transform="translate(-1398.83 -1143.83)"/><path class="cls-1" d="M1628.24,2953c21.09,1.74,38.38-13.46,41.07-33.68s-12.12-38.91-32.83-41.7-39.69,12.24-42.39,33.55S1607.68,2951.25,1628.24,2953Z" transform="translate(-1398.83 -1143.83)"/><path class="cls-1" d="M1621.26,3104.42c20.9-.08,38.26-16.69,38.78-37.09s-16-37.75-36.86-38.72-38.24,15.63-38.78,37.09S1600.37,3104.51,1621.26,3104.42Z" transform="translate(-1398.83 -1143.83)"/><path class="cls-1" d="M3359.4,1143.83c-1081.06,0-1960.57,879.53-1960.57,1960.6S2278.34,5065,3359.4,5065,5320,4185.5,5320,3104.43,4440.47,1143.83,3359.4,1143.83Zm0,3821.17c-1025.91,0-1860.56-834.66-1860.56-1860.57s834.65-1860.6,1860.56-1860.6S5220,2078.49,5220,3104.43,4385.34,4965,3359.4,4965Z" transform="translate(-1398.83 -1143.83)"/><polygon class="cls-1" points="2597.27 1443.26 2663.84 1408.26 2730.42 1443.26 2717.71 1369.12 2771.57 1316.62 2697.13 1305.8 2663.84 1238.35 2630.56 1305.8 2556.12 1316.62 2609.98 1369.12 2597.27 1443.26"/><polygon class="cls-1" points="1190.73 1443.26 1257.31 1408.26 1323.88 1443.26 1311.17 1369.12 1365.03 1316.62 1290.59 1305.8 1257.31 1238.35 1224.02 1305.8 1149.58 1316.62 1203.44 1369.12 1190.73 1443.26"/></svg>